<?xml version="1.0" encoding="utf-8" standalone="no"?>
<!DOCTYPE svg PUBLIC "-//W3C//DTD SVG 1.1//EN"
  "http://www.w3.org/Graphics/SVG/1.1/DTD/svg11.dtd">
<!-- Created with matplotlib (https://matplotlib.org/) -->
<svg height="864pt" version="1.1" viewBox="0 0 864 864" width="864pt" xmlns="http://www.w3.org/2000/svg" xmlns:xlink="http://www.w3.org/1999/xlink">
 <metadata>
  <rdf:RDF xmlns:cc="http://creativecommons.org/ns#" xmlns:dc="http://purl.org/dc/elements/1.1/" xmlns:rdf="http://www.w3.org/1999/02/22-rdf-syntax-ns#">
   <cc:Work>
    <dc:type rdf:resource="http://purl.org/dc/dcmitype/StillImage"/>
    <dc:date>2021-02-28T16:30:23.144381</dc:date>
    <dc:format>image/svg+xml</dc:format>
    <dc:creator>
     <cc:Agent>
      <dc:title>Matplotlib v3.3.4, https://matplotlib.org/</dc:title>
     </cc:Agent>
    </dc:creator>
   </cc:Work>
  </rdf:RDF>
 </metadata>
 <defs>
  <style type="text/css">*{stroke-linecap:butt;stroke-linejoin:round;}</style>
 </defs>
 <g id="figure_1">
  <g id="patch_1">
   <path d="M 0 864 
L 864 864 
L 864 0 
L 0 0 
z
" style="fill:none;"/>
  </g>
  <g id="axes_1">
   <g id="patch_2">
    <path d="M 132.813019 756 
L 752.786981 756 
L 752.786981 103.68 
L 132.813019 103.68 
z
" style="fill:#ffffff;"/>
   </g>
   <g id="PatchCollection_1">
    <path clip-path="url(#pa2d0e265fa)" d="M 467.73194 726.349091 
L 467.736047 726.218768 
L 467.571537 726.255271 
L 467.266035 726.191608 
L 466.093595 725.760588 
L 465.494776 725.384383 
L 464.595505 724.608207 
L 463.461317 723.3491 
L 462.285948 722.681236 
L 459.988832 720.84506 
L 457.286738 719.189126 
L 455.649919 718.04948 
L 454.33614 717.226975 
L 453.604806 716.876448 
L 453.220714 716.648363 
L 451.987355 715.680783 
L 450.409675 714.382288 
L 448.575268 713.068775 
L 446.922664 712.167805 
L 446.294099 711.727524 
L 444.937674 710.609696 
L 444.020596 709.737892 
L 441.357741 707.840015 
L 438.746667 706.169444 
L 438.260647 705.829385 
L 436.22395 704.682817 
L 435.787001 704.864551 
L 434.635944 704.455049 
L 434.205375 704.284919 
L 433.225024 703.981727 
L 430.829642 703.189946 
L 430.092243 702.839031 
L 429.583498 702.53764 
L 428.066157 701.553814 
L 425.653298 699.122967 
L 425.223429 698.150519 
L 423.957132 697.086659 
L 423.009578 696.170582 
L 422.21906 695.338098 
L 420.230946 693.823634 
L 419.229794 693.311804 
L 419.008675 693.195429 
L 418.879257 693.32339 
L 417.06519 695.104139 
L 416.889235 695.323929 
L 416.767912 695.54862 
L 416.655223 695.885644 
L 416.497084 696.556067 
L 416.727252 696.797805 
L 414.143006 699.512731 
L 412.834329 700.909614 
L 411.910977 701.900024 
L 411.279032 702.879923 
L 411.477737 703.207983 
L 411.434448 703.289051 
L 411.201326 703.434222 
L 410.718144 703.677517 
L 410.517596 703.830122 
L 410.107722 703.810068 
L 410.099154 703.93415 
L 407.569106 706.795426 
L 408.381793 707.509816 
L 407.978653 708.050994 
L 406.035896 708.072205 
L 405.976173 708.017833 
L 404.27074 708.002944 
L 402.435893 708.053907 
L 399.625506 708.106483 
L 398.710051 708.092986 
L 396.821228 708.115897 
L 392.833886 708.213967 
L 391.010183 708.245725 
L 390.059752 708.226593 
L 388.703568 708.244654 
L 385.320232 708.362315 
L 385.401428 713.493986 
L 384.948703 713.505993 
L 382.991593 713.532394 
L 381.609393 713.564232 
L 376.146922 713.621208 
L 375.783144 713.59627 
L 373.049874 713.634595 
L 370.206847 713.674681 
L 367.344078 713.719038 
L 365.383344 713.749246 
L 362.474757 713.789909 
L 358.974205 713.838931 
L 355.459892 713.917695 
L 352.519219 713.983818 
L 351.918706 713.988936 
L 351.724161 713.990667 
L 349.421782 714.048269 
L 349.377296 714.261547 
L 349.331089 714.688888 
L 348.984202 714.800087 
L 346.022729 713.996169 
L 342.615079 713.070341 
L 343.289708 710.358363 
L 339.418118 709.302462 
L 340.471829 705.583025 
L 342.088082 699.855983 
L 342.144717 699.513387 
L 342.30192 698.858411 
L 342.396887 698.463391 
L 340.880494 698.009434 
L 339.998206 697.74738 
L 339.556721 697.567506 
L 339.270999 697.239571 
L 338.470502 696.091568 
L 338.4006 695.97677 
L 338.417394 695.806733 
L 338.497761 695.580031 
L 339.447483 693.73203 
L 341.323738 690.322147 
L 342.957817 687.36819 
L 343.203377 687.117228 
L 343.128684 686.904417 
L 341.973025 682.958641 
L 341.839933 682.438944 
L 340.786817 678.811941 
L 340.256699 677.239985 
L 340.216703 676.783433 
L 340.391531 676.419616 
L 342.98721 673.102368 
L 345.550936 669.753721 
L 341.346117 669.599486 
L 337.375791 669.450296 
L 335.382326 665.038384 
L 333.644542 661.653755 
L 333.635538 661.023612 
L 333.250389 660.172793 
L 333.363238 657.058573 
L 333.407238 655.821695 
L 333.342639 655.213905 
L 333.350237 654.999214 
L 333.477507 652.858453 
L 333.542269 649.960775 
L 333.639657 649.636263 
L 333.860548 649.457418 
L 334.845544 647.365842 
L 334.739573 647.348331 
L 335.798277 645.068358 
L 338.098319 640.204633 
L 340.163639 635.897507 
L 339.703289 635.347113 
L 339.310285 634.876914 
L 338.535479 633.950247 
L 338.165724 633.33269 
L 338.076204 632.962792 
L 338.030605 632.819458 
L 336.507072 631.463563 
L 334.992296 630.246462 
L 333.49013 628.867521 
L 333.452309 628.828004 
L 332.700202 628.045471 
L 331.58182 626.991832 
L 330.888213 626.665577 
L 330.489341 626.227815 
L 329.549352 625.577112 
L 328.945906 625.235974 
L 327.480872 624.430615 
L 326.852664 624.212543 
L 326.447089 624.071801 
L 324.459001 623.50872 
L 322.16019 622.710458 
L 321.772979 622.580301 
L 321.466198 622.483323 
L 320.800404 622.237624 
L 319.828651 621.937012 
L 319.416212 621.751514 
L 317.190347 620.446039 
L 314.741357 618.787231 
L 313.118014 617.878127 
L 311.597366 616.962569 
L 311.556358 616.93876 
L 311.149196 616.701937 
L 310.614949 616.391213 
L 309.63387 615.791686 
L 308.485013 615.089535 
L 306.294841 613.395745 
L 305.530371 612.841408 
L 304.827659 612.211199 
L 304.23934 611.659283 
L 303.948629 611.291461 
L 302.481865 609.299273 
L 302.156818 609.002357 
L 301.768817 608.730376 
L 301.518337 608.370954 
L 301.134154 607.766373 
L 300.869258 607.51924 
L 300.533912 607.232311 
L 299.991215 606.60371 
L 299.452184 606.043291 
L 298.878649 605.677499 
L 298.441001 605.424317 
L 298.152619 605.378429 
L 298.144753 604.521588 
L 298.158571 603.859904 
L 298.107612 601.305809 
L 298.09242 601.073727 
L 298.112988 600.533982 
L 298.142708 598.642153 
L 298.146939 598.469797 
L 297.620149 598.374048 
L 297.096684 598.256882 
L 290.434512 596.669956 
L 290.001659 596.551129 
L 289.091817 596.185602 
L 288.465874 595.814119 
L 287.900057 595.376378 
L 286.816962 594.478138 
L 286.362877 594.175235 
L 285.865694 593.940832 
L 284.290656 593.427596 
L 283.538438 593.154967 
L 282.764028 592.800642 
L 281.721284 592.324656 
L 281.295631 592.111539 
L 280.844872 591.889264 
L 280.575233 591.742897 
L 280.190815 591.538194 
L 278.905812 590.912269 
L 278.905111 590.894292 
L 278.789795 590.833969 
L 276.622395 589.773928 
L 276.171042 589.521467 
L 275.501645 589.117922 
L 274.452738 588.434847 
L 273.53645 587.833678 
L 272.892319 587.410306 
L 271.482689 586.48593 
L 270.182849 585.629633 
L 270.19455 585.610805 
L 270.025564 585.498933 
L 270.002593 585.498121 
L 269.335833 585.02286 
L 268.744995 584.596798 
L 268.583173 584.50367 
L 268.555044 584.467595 
L 267.335509 583.597303 
L 266.848155 583.255321 
L 266.809809 583.182072 
L 266.63369 583.064687 
L 266.562899 583.044048 
L 266.414816 582.943989 
L 265.943476 582.568498 
L 266.87827 581.11861 
L 264.495527 579.643031 
L 258.077976 576.221394 
L 258.893591 575.240671 
L 260.06903 573.83127 
L 259.477989 573.572401 
L 259.367424 573.450068 
L 259.31205 573.187915 
L 259.10705 573.106282 
L 258.983477 572.464813 
L 259.187534 571.808988 
L 259.259642 571.490243 
L 257.051631 570.544809 
L 257.324152 570.280535 
L 257.385392 569.681089 
L 256.575104 569.238406 
L 256.599647 569.023572 
L 256.135519 568.661346 
L 255.804502 568.543016 
L 254.921345 566.869023 
L 254.009194 565.942554 
L 252.644465 565.823981 
L 251.649259 565.683277 
L 251.637652 559.264127 
L 251.588436 558.63313 
L 251.600622 556.388991 
L 251.646755 553.863964 
L 251.618387 553.538203 
L 251.56931 553.237348 
L 251.428458 552.987532 
L 251.104714 552.755157 
L 250.626504 552.580445 
L 251.082634 551.72844 
L 249.669055 551.299986 
L 248.430624 550.931255 
L 248.794008 549.517341 
L 247.588842 549.131152 
L 247.184611 549.005583 
L 244.657697 548.231948 
L 240.980491 547.090302 
L 241.041829 546.843286 
L 241.459197 545.750847 
L 242.560483 542.663527 
L 243.700531 539.353471 
L 244.034948 538.479463 
L 244.129237 538.280879 
L 244.311133 537.711658 
L 244.498671 537.032673 
L 244.821422 536.057128 
L 245.406225 534.433385 
L 245.752742 533.302581 
L 244.53766 533.285379 
L 242.934408 533.351646 
L 241.145833 533.436914 
L 240.523303 533.422615 
L 240.146062 533.389549 
L 239.955743 533.366559 
L 238.279974 533.266805 
L 238.225689 533.694568 
L 238.209718 534.505576 
L 238.115443 535.288466 
L 238.056386 536.152996 
L 236.774589 536.319423 
L 236.372498 536.387144 
L 231.3896 537.085851 
L 231.242731 537.093228 
L 231.185458 537.411001 
L 229.543228 537.196448 
L 229.483299 537.300245 
L 228.844828 536.96395 
L 228.761879 536.857772 
L 228.713012 536.794128 
L 228.049896 536.430155 
L 227.924269 536.407115 
L 225.542232 536.91197 
L 224.929439 537.060234 
L 224.836387 537.21289 
L 222.85238 540.543215 
L 222.192056 540.547379 
L 221.635433 540.548154 
L 220.08483 540.54593 
L 220.024078 540.545914 
L 220.021917 540.545858 
L 220.083529 540.429865 
L 219.805287 540.416249 
L 219.302023 540.391402 
L 218.493969 540.398425 
L 217.360817 540.537828 
L 217.04187 540.554726 
L 216.886442 540.551244 
L 216.537486 540.542691 
L 214.674398 540.53572 
L 213.201085 540.53267 
L 211.72188 540.521792 
L 210.900272 540.51333 
L 210.068928 540.508763 
L 209.713749 540.512701 
L 209.174373 540.508078 
L 208.703395 540.504258 
L 207.569689 540.491222 
L 207.016895 540.488431 
L 206.501277 540.485035 
L 205.981927 540.504237 
L 205.537845 540.517119 
L 205.087344 540.534965 
L 204.617154 540.553878 
L 204.158473 540.568753 
L 203.674295 540.581189 
L 203.396646 540.597827 
L 202.964777 540.625049 
L 202.12201 540.674519 
L 201.703288 540.695182 
L 200.768618 540.687215 
L 200.573711 540.67464 
L 199.898598 540.650155 
L 199.288002 540.586507 
L 198.775709 540.545745 
L 198.768066 540.529562 
L 198.242086 540.516271 
L 198.000039 540.570358 
L 197.451554 540.598714 
L 197.381269 540.602412 
L 197.389104 540.633991 
L 196.694255 540.673345 
L 196.598237 540.676177 
L 196.547373 540.681563 
L 195.837133 540.723089 
L 195.83643 540.712217 
L 195.161405 540.737692 
L 194.960818 540.747083 
L 194.440864 540.774619 
L 194.319379 540.781527 
L 194.263286 540.783819 
L 194.261254 540.748247 
L 192.764048 540.886768 
L 192.650116 540.951495 
L 192.396461 540.983193 
L 192.027708 540.979937 
L 192.021409 540.987864 
L 191.634583 540.991638 
L 191.243838 540.994918 
L 190.578465 540.958714 
L 190.519573 540.955213 
L 189.575813 540.90331 
L 189.419837 540.94406 
L 189.218874 540.922274 
L 189.047598 540.908165 
L 188.970919 540.892956 
L 188.655044 540.828924 
L 188.66103 540.794941 
L 188.097974 540.732595 
L 187.901025 540.715257 
L 187.230038 540.667879 
L 186.545917 540.618982 
L 186.547467 540.688681 
L 185.589158 540.567768 
L 185.602648 540.608965 
L 184.698287 540.492615 
L 184.413866 540.489794 
L 183.73551 540.484282 
L 182.907757 540.531347 
L 181.791088 540.64357 
L 181.782563 539.972029 
L 181.765695 537.311571 
L 181.738514 535.275202 
L 181.693945 531.449184 
L 181.694787 530.941276 
L 181.697092 529.663815 
L 181.698035 529.067703 
L 181.698056 528.438612 
L 181.697858 527.013484 
L 181.7655 527.028848 
L 181.764825 526.940229 
L 181.752858 523.161823 
L 181.753075 523.153344 
L 181.750769 522.477031 
L 181.624805 522.542644 
L 181.49865 522.608055 
L 180.984649 522.87518 
L 180.560929 523.110897 
L 180.252304 523.283088 
L 180.198446 523.312875 
L 179.317099 523.803372 
L 178.98254 523.959505 
L 178.925182 523.84969 
L 178.883811 523.768308 
L 178.516592 523.917483 
L 178.48917 523.928615 
L 178.512981 524.020002 
L 178.580469 524.279261 
L 178.490006 524.248905 
L 177.639938 524.632087 
L 176.835177 524.974019 
L 175.694473 525.457661 
L 174.475366 525.893516 
L 174.35719 525.70123 
L 174.27862 525.744 
L 173.844927 525.978699 
L 173.434767 526.200588 
L 172.323966 526.823369 
L 171.409343 527.303017 
L 170.263226 527.831378 
L 168.430115 528.674392 
L 166.906806 529.360235 
L 166.803949 528.952473 
L 167.244089 528.070861 
L 167.591717 527.147013 
L 167.848992 526.196374 
L 168.011845 525.224168 
L 168.078713 524.237656 
L 168.056819 523.246493 
L 168.036876 523.087919 
L 167.925243 522.276587 
L 167.788232 521.635096 
L 167.756433 521.494174 
L 167.414463 520.453939 
L 167.851792 520.146489 
L 167.601742 519.819401 
L 167.477445 519.658145 
L 167.041143 519.563069 
L 166.901183 519.268016 
L 166.196468 517.776841 
L 165.39666 515.97283 
L 164.577306 514.170692 
L 164.219816 513.266427 
L 163.907388 512.322274 
L 163.372671 510.423064 
L 162.926686 508.722477 
L 162.875156 508.521852 
L 162.841941 508.397471 
L 163.169543 508.299316 
L 163.155614 508.236208 
L 162.858793 508.260956 
L 162.81957 508.264291 
L 162.60794 507.608463 
L 162.378586 506.945669 
L 161.867297 505.04332 
L 161.663448 504.305407 
L 161.435508 503.478473 
L 161.300559 502.861515 
L 161.624653 502.855418 
L 161.630395 502.699477 
L 161.252818 502.612247 
L 161.101373 501.638883 
L 161.02065 500.653321 
L 160.993654 500.099118 
L 161.121397 499.114558 
L 161.289346 497.833454 
L 161.550757 495.95664 
L 161.845522 495.033391 
L 162.205094 494.14535 
L 162.437912 493.631158 
L 163.206078 493.482931 
L 163.195986 493.39269 
L 163.184164 493.293129 
L 162.616197 493.334999 
L 162.641609 493.248628 
L 163.054304 492.468708 
L 163.596951 491.645554 
L 164.202498 490.840001 
L 164.481073 490.514649 
L 164.82804 490.10699 
L 165.324247 489.601736 
L 165.518531 489.403869 
L 166.144155 488.838007 
L 166.250059 488.742654 
L 167.025014 488.137615 
L 167.843425 487.58757 
L 168.697519 487.096464 
L 169.135125 486.884337 
L 169.580903 486.66808 
L 170.233021 486.421811 
L 170.450998 486.305863 
L 171.112778 486.081949 
L 171.62554 485.908273 
L 173.587801 485.309185 
L 175.727461 484.88165 
L 175.745194 484.964985 
L 175.769025 485.086761 
L 175.790766 485.082782 
L 176.446804 484.953278 
L 177.107183 484.823298 
L 177.75353 484.69592 
L 178.411942 484.566096 
L 178.366269 484.360286 
L 178.668719 484.295474 
L 179.030109 484.218371 
L 179.798605 484.05351 
L 179.8718 484.03764 
L 181.383727 483.757412 
L 183.781533 483.31561 
L 183.868899 483.299518 
L 185.498421 483.022 
L 186.357878 482.839812 
L 186.382446 482.848341 
L 186.804778 482.819217 
L 186.462656 482.017091 
L 186.001486 480.93286 
L 185.868299 480.619407 
L 185.847572 480.201517 
L 185.827771 479.801213 
L 185.810497 479.447939 
L 186.959092 479.468005 
L 187.058642 477.748087 
L 187.31545 475.276861 
L 187.376419 474.689211 
L 187.514503 473.360611 
L 187.516896 473.344097 
L 188.197266 468.75919 
L 189.2924 468.827822 
L 189.618895 466.717352 
L 189.698524 466.200438 
L 189.711105 466.063422 
L 189.745567 465.688204 
L 191.199732 465.691574 
L 191.806495 465.693302 
L 191.811048 465.600675 
L 191.813296 465.559294 
L 191.867571 464.446773 
L 191.947764 462.817722 
L 192.019024 461.374916 
L 192.089896 459.939599 
L 192.104318 459.64753 
L 192.124028 459.226742 
L 192.157536 458.515249 
L 192.190883 457.802371 
L 192.22742 457.034521 
L 192.372455 453.960724 
L 192.37386 453.929188 
L 192.376266 453.881694 
L 192.381884 453.770742 
L 192.494406 451.598887 
L 192.556788 450.39403 
L 192.619178 449.188976 
L 192.689623 447.831989 
L 192.349197 447.762181 
L 192.252301 447.742105 
L 192.007993 447.691959 
L 191.680744 447.637689 
L 191.050533 447.533532 
L 190.761692 447.439809 
L 190.512079 447.358746 
L 190.221908 447.202042 
L 189.897284 446.954266 
L 189.760835 446.842395 
L 189.481005 446.559275 
L 189.223909 446.26451 
L 189.052245 445.999389 
L 189.00701 445.929546 
L 189.114615 445.946542 
L 189.200697 445.889969 
L 189.259477 445.632792 
L 189.211479 439.645942 
L 189.223931 439.521749 
L 189.237864 439.378257 
L 189.243165 439.325312 
L 189.287445 439.17274 
L 189.341111 438.991995 
L 189.495884 438.752304 
L 189.744859 438.446778 
L 190.136258 438.151654 
L 190.775726 437.761931 
L 191.857536 437.223848 
L 192.498433 436.86318 
L 193.935167 435.950128 
L 195.957946 434.78277 
L 196.417218 434.467333 
L 196.974 433.836733 
L 197.695789 432.922323 
L 198.169291 432.475843 
L 198.405097 432.232156 
L 201.698306 431.962861 
L 205.937212 431.977437 
L 208.783428 431.822818 
L 211.932497 432.14782 
L 213.294221 427.290236 
L 215.030129 421.078719 
L 216.692983 415.118296 
L 216.688225 414.809941 
L 217.420252 409.612699 
L 217.489629 409.617279 
L 217.700055 407.806962 
L 217.867314 406.368665 
L 217.758749 406.25867 
L 217.368416 405.863058 
L 214.83614 404.0265 
L 214.432263 403.537799 
L 214.301904 402.926415 
L 214.027612 400.32731 
L 213.981515 400.086349 
L 213.868365 399.796668 
L 213.794041 399.520632 
L 213.807232 399.36193 
L 213.790863 399.20423 
L 213.493457 399.162509 
L 212.585457 399.083903 
L 211.566978 398.975778 
L 211.489412 398.967831 
L 210.946039 398.882394 
L 209.750342 398.77459 
L 209.548967 398.749992 
L 207.818788 398.547744 
L 207.302598 398.590512 
L 207.037471 398.602143 
L 207.034522 398.647451 
L 206.879999 398.653484 
L 206.767113 398.663562 
L 206.065994 398.738412 
L 205.778008 398.682556 
L 205.786646 398.615294 
L 205.967912 396.631531 
L 205.824052 396.598377 
L 205.604478 396.546476 
L 204.57526 398.133009 
L 204.438834 398.443207 
L 201.334048 397.118955 
L 194.395118 395.726365 
L 193.045436 395.357651 
L 191.747188 394.918264 
L 189.301383 394.028252 
L 188.562739 393.854806 
L 187.315745 393.85468 
L 185.781161 393.828185 
L 184.376426 393.782971 
L 182.986933 393.864659 
L 182.265565 393.776953 
L 181.008081 393.395989 
L 179.45695 392.940371 
L 178.643135 392.779466 
L 177.276387 392.511761 
L 177.383945 392.049825 
L 177.574825 391.770791 
L 178.207483 390.912546 
L 180.536635 387.148221 
L 183.007878 383.05019 
L 186.238107 377.684286 
L 189.677891 371.996549 
L 192.160854 367.902011 
L 192.365401 367.562583 
L 192.482455 367.369672 
L 192.314725 367.092218 
L 192.1774 366.86528 
L 192.822526 366.435261 
L 193.037006 366.229881 
L 193.273648 365.929174 
L 193.635587 365.337897 
L 193.982066 364.727671 
L 195.538962 362.143419 
L 195.608422 362.031956 
L 195.75467 361.792251 
L 195.892902 361.611141 
L 196.03482 361.515966 
L 197.311731 359.311826 
L 197.676091 355.579151 
L 197.711255 355.202575 
L 197.933303 352.440218 
L 198.404396 347.775969 
L 198.865041 344.193208 
L 199.480744 338.574893 
L 199.686914 336.337418 
L 200.080032 332.39969 
L 200.584243 327.796306 
L 200.606435 327.59403 
L 197.237377 326.684755 
L 196.933049 326.604823 
L 193.62219 325.735864 
L 193.331937 325.660057 
L 193.663663 320.1192 
L 194.053727 313.643141 
L 194.148018 312.154774 
L 194.176509 310.977859 
L 194.089615 310.878321 
L 194.120652 310.653778 
L 194.205984 310.615737 
L 194.245111 310.520259 
L 194.593785 304.763183 
L 194.94786 298.898311 
L 195.023624 297.989609 
L 195.141393 295.923287 
L 195.195029 294.803659 
L 194.410545 290.434388 
L 194.548564 288.324391 
L 194.420186 287.382568 
L 193.382987 285.796768 
L 193.597004 284.938616 
L 193.876847 283.822292 
L 194.417112 281.640052 
L 194.922768 279.531506 
L 195.168056 278.517491 
L 195.942044 275.382511 
L 196.314275 273.875713 
L 197.391938 269.464226 
L 198.011532 266.96637 
L 198.541838 264.742258 
L 199.665491 262.737021 
L 198.499304 260.34055 
L 198.027628 258.586285 
L 196.787543 256.405174 
L 192.904684 251.91723 
L 193.234052 250.270392 
L 196.560645 251.954481 
L 198.243419 252.587611 
L 202.6509 253.070457 
L 203.608718 253.128546 
L 204.981397 253.316441 
L 208.317005 253.89357 
L 210.369636 253.806647 
L 210.654011 253.669432 
L 212.043748 252.998708 
L 212.183737 252.931327 
L 212.197699 252.842105 
L 212.145028 252.737132 
L 212.01266 252.217661 
L 212.02768 252.027435 
L 212.130201 251.64276 
L 212.299458 251.209509 
L 212.74654 249.417223 
L 212.94545 248.6339 
L 213.2929 247.614707 
L 213.775838 246.406663 
L 214.088498 245.368606 
L 214.440143 244.235077 
L 215.915379 241.702686 
L 219.126925 236.196677 
L 219.492213 235.826392 
L 220.569582 235.286917 
L 223.491385 234.621402 
L 225.300702 234.157232 
L 229.884108 233.564174 
L 234.478556 231.722536 
L 234.805638 231.60763 
L 235.212654 233.070694 
L 235.424468 234.321616 
L 236.324858 234.05805 
L 236.342714 234.083977 
L 237.939543 233.15407 
L 239.224805 230.996869 
L 239.655779 230.27123 
L 240.079833 229.979926 
L 241.501824 232.06004 
L 243.46992 234.93742 
L 248.309206 233.271823 
L 252.283457 231.901401 
L 253.442995 231.507334 
L 253.507512 231.491682 
L 255.543678 230.781713 
L 255.591861 230.53436 
L 255.702475 229.547697 
L 255.799633 229.409584 
L 255.938552 227.773083 
L 255.97941 227.148046 
L 256.117874 225.818576 
L 256.24503 224.179789 
L 259.660802 218.283303 
L 259.705953 217.357062 
L 260.546446 203.680121 
L 257.773099 187.064918 
L 250.534067 177.412213 
L 246.435315 171.908488 
L 242.607072 166.629351 
L 246.245122 164.311482 
L 254.251102 159.295739 
L 256.768615 157.710592 
L 256.885904 157.271104 
L 257.572338 154.706533 
L 258.258596 152.142553 
L 258.426937 152.136572 
L 260.379261 152.066958 
L 261.288548 152.034333 
L 261.989231 152.1556 
L 262.17582 152.20556 
L 262.850257 152.385728 
L 263.402641 152.656971 
L 263.959775 152.949852 
L 264.930014 153.406876 
L 265.240248 153.542621 
L 266.325605 154.559784 
L 267.458476 155.740826 
L 267.931836 155.267047 
L 268.14288 155.051476 
L 268.451898 154.685593 
L 270.11019 152.986884 
L 270.3684 153.045285 
L 270.822979 152.536684 
L 271.550908 151.727362 
L 272.18862 152.195106 
L 272.192688 152.197978 
L 272.300378 152.275052 
L 272.665823 152.538192 
L 272.857825 152.673366 
L 272.979207 152.76245 
L 273.05441 152.806886 
L 273.079106 152.813467 
L 273.256228 152.973501 
L 273.674721 153.289961 
L 273.731092 153.329948 
L 274.151654 153.598515 
L 274.45676 153.748361 
L 275.164772 154.110857 
L 275.636712 154.354956 
L 275.855163 154.467756 
L 276.227751 154.647829 
L 277.631098 155.351202 
L 278.139795 155.048516 
L 278.572727 154.825693 
L 277.407349 152.564464 
L 276.256004 150.330067 
L 276.206272 150.233821 
L 274.626458 147.168273 
L 273.046549 144.102553 
L 273.57594 144.636079 
L 274.052136 144.693612 
L 276.197027 145.893745 
L 278.699646 147.333795 
L 279.584122 145.64549 
L 280.915332 142.966157 
L 282.68873 140.158609 
L 284.462626 137.351106 
L 284.516695 137.263958 
L 285.01808 138.111137 
L 286.59596 137.573398 
L 286.241107 136.585705 
L 286.2196 136.526521 
L 288.475032 136.826726 
L 290.583147 137.054545 
L 291.385711 137.090363 
L 292.817036 137.179044 
L 293.631633 137.141996 
L 294.323933 137.057063 
L 295.428388 136.974962 
L 295.900063 137.032677 
L 296.152731 137.063371 
L 296.660108 136.903018 
L 297.050926 135.452154 
L 297.106589 135.277246 
L 297.419499 134.54729 
L 297.534484 134.412857 
L 297.852451 134.189975 
L 298.782456 133.974742 
L 302.767281 133.813684 
L 306.752122 133.652592 
L 310.736776 133.491658 
L 314.72223 133.330909 
L 315.884674 136.648612 
L 317.004941 139.815805 
L 317.932818 142.484063 
L 318.983797 145.530408 
L 319.741041 147.726569 
L 320.634788 150.272766 
L 321.148951 151.795941 
L 321.673003 153.462649 
L 322.736898 153.4577 
L 325.003398 153.464449 
L 327.269699 153.471245 
L 327.78984 153.471043 
L 330.895118 153.468871 
L 333.752845 152.198892 
L 335.903431 151.243308 
L 335.969789 151.213356 
L 336.123881 151.14417 
L 336.962301 150.76755 
L 337.270082 150.629567 
L 340.876268 149.002623 
L 343.474535 147.830984 
L 345.861176 146.755023 
L 346.480635 146.475668 
L 349.438395 145.143976 
L 351.275961 146.180243 
L 353.113481 147.216741 
L 354.181922 146.942512 
L 355.375632 146.635837 
L 356.274168 146.19533 
L 358.363161 145.38851 
L 358.899937 144.895412 
L 359.503045 144.295422 
L 360.248106 144.023571 
L 363.143011 143.352992 
L 364.605688 143.209764 
L 366.161088 142.777078 
L 367.887093 142.229761 
L 368.998476 144.971096 
L 370.104966 147.701653 
L 370.972892 149.765535 
L 371.283066 150.80835 
L 371.284809 150.901932 
L 371.115578 155.061883 
L 372.06933 157.728042 
L 373.018603 158.252267 
L 374.850661 158.191283 
L 375.946566 158.290024 
L 378.179526 158.086925 
L 378.397837 158.89495 
L 378.296674 159.827283 
L 379.723573 159.649545 
L 383.250316 158.860807 
L 385.65994 158.382005 
L 388.069395 157.90306 
L 388.271843 158.216352 
L 388.510067 158.923332 
L 390.500695 157.512005 
L 391.564161 156.963956 
L 391.645853 156.915527 
L 391.629992 156.417218 
L 391.641916 156.322636 
L 391.96872 154.717218 
L 391.98904 154.640038 
L 392.014346 154.561025 
L 392.39956 153.669013 
L 392.729469 151.650278 
L 392.758877 151.509418 
L 393.105512 150.762157 
L 393.330706 150.192648 
L 393.626073 149.401331 
L 393.668448 149.283921 
L 393.6976 149.173443 
L 394.063837 147.571899 
L 394.152691 147.14835 
L 394.167964 146.969601 
L 394.166859 146.811706 
L 394.08618 146.083667 
L 394.172398 144.351941 
L 394.205655 144.102065 
L 394.439178 143.532003 
L 394.536539 143.361669 
L 395.170317 142.626599 
L 395.447724 142.245034 
L 395.728957 141.846804 
L 395.964716 141.493279 
L 396.048211 141.374062 
L 396.133128 141.267515 
L 397.323749 139.966327 
L 397.369366 140.057391 
L 398.203924 141.631798 
L 399.845978 144.665819 
L 401.487536 147.699856 
L 403.529526 147.285569 
L 404.953986 147.027423 
L 405.763152 146.880658 
L 408.416248 146.351245 
L 411.069372 145.821905 
L 415.15183 145.025699 
L 416.387322 144.393973 
L 420.156339 142.440863 
L 422.435278 142.868772 
L 422.701393 142.854986 
L 425.612394 143.263751 
L 426.403611 147.492269 
L 429.596369 145.994629 
L 432.789027 144.49709 
L 435.145629 144.828443 
L 437.502017 145.159846 
L 441.763192 145.624274 
L 442.053773 143.304829 
L 442.344369 140.985386 
L 442.588697 138.440456 
L 445.870184 138.964771 
L 449.000929 137.661155 
L 448.92594 138.032957 
L 452.30252 137.103305 
L 454.821665 136.40971 
L 457.133735 135.81957 
L 459.445641 135.229283 
L 460.053668 137.591605 
L 460.661654 139.954326 
L 461.275837 142.340908 
L 461.890187 144.7275 
L 462.504103 147.114478 
L 463.118192 149.501269 
L 463.876988 152.450076 
L 462.705048 152.751705 
L 463.793999 156.884903 
L 464.878756 161.002998 
L 465.963614 165.121307 
L 470.048759 164.076087 
L 470.923963 167.693908 
L 471.723129 170.996186 
L 472.467205 174.07153 
L 472.986752 176.218673 
L 473.506277 178.365819 
L 474.049721 180.613508 
L 474.593546 182.860817 
L 475.141201 185.125013 
L 475.688634 187.389206 
L 474.045862 187.574308 
L 470.519924 188.063377 
L 468.94546 188.241257 
L 469.161868 189.42319 
L 469.827599 193.066359 
L 470.444207 196.988728 
L 471.060971 200.91091 
L 472.175864 200.906112 
L 473.162185 200.844145 
L 474.747301 200.796488 
L 475.460854 206.946224 
L 475.883152 208.427942 
L 476.734861 211.027114 
L 477.869695 210.751033 
L 478.196874 211.999531 
L 475.888299 212.70489 
L 476.061986 213.174225 
L 476.07371 213.246589 
L 476.107816 213.438986 
L 476.118309 213.499278 
L 476.16465 213.835292 
L 476.224963 214.124546 
L 476.258644 214.242733 
L 476.476025 214.961771 
L 476.61152 215.421322 
L 476.711589 215.761649 
L 476.803755 216.081817 
L 476.855525 216.277289 
L 476.829303 216.365727 
L 476.900614 216.478686 
L 476.975083 216.660013 
L 477.01108 216.786753 
L 477.104406 217.141883 
L 477.145861 217.305089 
L 477.378946 218.211063 
L 477.465627 218.557121 
L 477.68538 219.412193 
L 477.737914 219.663139 
L 477.86885 220.170907 
L 477.888351 220.233432 
L 478.020171 220.57369 
L 478.135086 220.870837 
L 478.162644 220.941291 
L 478.241543 221.385989 
L 478.31677 221.670742 
L 478.436942 222.148009 
L 478.769081 223.482888 
L 478.909624 224.033362 
L 478.921858 224.081075 
L 478.937826 224.108768 
L 478.939577 224.130131 
L 478.936997 224.151171 
L 478.970097 224.364457 
L 479.103079 224.74619 
L 479.256897 225.39019 
L 479.360255 225.80047 
L 479.465025 226.209608 
L 479.579631 226.715329 
L 479.68214 227.107036 
L 479.685852 227.142466 
L 479.695874 227.184787 
L 479.70742 227.215313 
L 479.793384 227.551486 
L 479.913769 228.061913 
L 480.027439 228.538402 
L 480.21179 229.285898 
L 480.310374 229.68361 
L 480.349936 229.850513 
L 480.41174 230.09423 
L 480.475157 230.364041 
L 480.521723 230.534303 
L 480.552929 230.717344 
L 479.898522 230.879987 
L 479.59208 230.945925 
L 479.471974 230.986462 
L 479.266893 231.046251 
L 479.19681 231.055278 
L 478.99299 231.119249 
L 478.801745 231.178058 
L 478.522323 231.216758 
L 478.302031 231.250063 
L 478.244738 231.308004 
L 477.930541 231.382998 
L 477.673971 231.456895 
L 477.606109 231.498349 
L 477.212691 231.584676 
L 476.459996 231.75674 
L 476.183519 231.823357 
L 475.887078 231.884662 
L 475.691832 231.92501 
L 475.309406 232.020146 
L 474.800298 232.151493 
L 474.353265 232.277923 
L 473.850993 232.411643 
L 473.303463 232.548599 
L 472.984262 232.626426 
L 472.892122 232.648043 
L 472.667445 232.696823 
L 472.314351 232.759862 
L 472.003197 232.818585 
L 471.801614 232.887371 
L 471.448237 232.9877 
L 471.264131 233.038639 
L 470.997335 233.104957 
L 470.862418 233.132646 
L 469.853478 233.382237 
L 469.631264 233.407218 
L 469.214213 233.575184 
L 468.21077 233.805415 
L 467.627494 233.944532 
L 467.254327 234.020036 
L 467.02699 234.086118 
L 466.518851 234.232534 
L 466.159828 234.32384 
L 465.547225 234.481663 
L 464.785016 234.663806 
L 464.799087 234.70269 
L 465.04191 235.649959 
L 465.282855 236.552577 
L 465.625782 237.887327 
L 465.810277 238.646837 
L 466.227459 240.307349 
L 466.243797 240.418326 
L 466.842908 242.919778 
L 467.12284 244.001912 
L 467.132163 244.041252 
L 467.153941 244.134427 
L 467.180363 244.237603 
L 467.277255 244.620059 
L 467.408859 245.139672 
L 467.503465 245.512393 
L 467.556779 245.722902 
L 467.610296 245.93322 
L 467.693721 246.262601 
L 467.777528 246.592387 
L 467.831387 246.804491 
L 467.940313 247.234654 
L 468.053148 247.679729 
L 468.142264 248.030585 
L 468.286265 248.598904 
L 468.43045 249.167623 
L 468.790206 250.586342 
L 468.842108 250.790891 
L 468.894011 250.995441 
L 468.94611 251.199996 
L 468.998023 251.404151 
L 469.097195 251.795949 
L 469.149091 252.000696 
L 469.2008 252.205043 
L 469.302655 252.60639 
L 469.431067 253.112892 
L 469.559482 253.619196 
L 469.645201 253.957525 
L 469.726149 254.276575 
L 469.806022 254.591845 
L 469.906994 254.989418 
L 470.01201 255.404079 
L 470.086031 255.696487 
L 470.165564 256.009774 
L 470.25732 256.371168 
L 470.272192 256.430007 
L 470.442393 257.101303 
L 470.508278 257.361114 
L 470.543844 257.50264 
L 470.61118 257.766835 
L 470.45748 257.783722 
L 470.4733 257.891922 
L 470.48732 257.987243 
L 471.347084 261.346149 
L 471.39828 261.705192 
L 471.548812 262.765065 
L 471.583919 263.01156 
L 471.873436 264.044653 
L 472.008209 264.520952 
L 472.194543 265.178902 
L 472.20258 265.207945 
L 472.369928 265.799242 
L 472.371373 265.803822 
L 472.431899 266.016516 
L 472.595813 266.596861 
L 472.6574 266.813729 
L 472.738954 267.104187 
L 472.843183 267.476796 
L 473.026653 268.131114 
L 473.092636 268.366462 
L 473.116061 268.450017 
L 473.151819 268.577736 
L 473.157865 268.600603 
L 474.036149 271.755042 
L 475.120838 275.613412 
L 475.174306 275.728421 
L 472.560884 276.592195 
L 475.012531 283.917064 
L 475.051725 284.048434 
L 475.242537 284.685801 
L 475.355877 285.021776 
L 477.941605 292.693562 
L 478.241511 292.601383 
L 478.337914 292.758285 
L 478.370487 292.811321 
L 478.440903 292.926033 
L 480.626201 296.484939 
L 481.021795 297.134354 
L 482.982029 300.351343 
L 485.655523 304.717972 
L 488.190412 308.826101 
L 487.808532 308.966983 
L 487.836917 309.041806 
L 487.981227 309.544849 
L 488.222127 310.319857 
L 488.428615 310.96935 
L 488.492139 311.137544 
L 488.877955 312.434954 
L 489.045552 312.997875 
L 490.219834 313.082638 
L 490.637896 313.093973 
L 492.044474 313.180562 
L 492.073794 313.256992 
L 492.355617 313.086583 
L 492.628142 312.89696 
L 493.194069 312.504708 
L 493.759118 313.721699 
L 493.815675 313.844307 
L 493.819385 313.852308 
L 493.960911 314.157551 
L 494.355303 315.006297 
L 494.862106 316.096887 
L 494.881587 316.138696 
L 494.899764 316.177902 
L 494.940812 316.264343 
L 494.979836 316.345792 
L 495.00047 316.388621 
L 495.216001 317.26138 
L 495.341872 317.74614 
L 495.427192 318.066131 
L 495.578719 318.60393 
L 495.64715 318.833446 
L 495.710674 319.075843 
L 497.483244 325.600746 
L 498.450549 329.161375 
L 501.369275 339.908345 
L 505.221184 339.137112 
L 505.823637 339.016545 
L 507.574375 338.678079 
L 508.23428 338.553679 
L 509.54974 338.305553 
L 511.780482 337.885079 
L 516.936036 336.83885 
L 517.034542 336.818844 
L 517.121354 336.801257 
L 517.398909 336.749197 
L 521.248391 336.029439 
L 524.165254 335.435388 
L 524.268123 335.41453 
L 525.996135 335.062704 
L 529.670996 334.315653 
L 532.002203 333.841763 
L 532.040655 333.834015 
L 536.34876 332.936936 
L 540.530659 332.099667 
L 542.783758 331.638925 
L 548.703023 330.4496 
L 548.882001 330.414051 
L 550.358562 330.115991 
L 550.956241 329.994181 
L 551.415123 329.901808 
L 554.31581 329.347844 
L 557.216534 328.793771 
L 560.55681 328.156352 
L 561.461718 327.063962 
L 562.710112 325.552789 
L 563.144171 324.936593 
L 563.256245 324.772191 
L 563.925834 323.550277 
L 564.543587 323.059535 
L 567.547203 320.656035 
L 568.521966 319.62519 
L 569.375146 318.621317 
L 572.914051 317.105382 
L 573.095105 317.027709 
L 574.875672 316.26529 
L 576.029099 315.499157 
L 576.441117 315.124296 
L 577.061907 314.495982 
L 577.263733 314.27054 
L 577.169175 314.137076 
L 578.030249 312.655169 
L 579.110513 309.739661 
L 579.372523 308.765946 
L 579.554962 308.285955 
L 581.076517 305.413274 
L 582.192966 304.287742 
L 582.374101 304.168845 
L 582.711828 303.947681 
L 583.526169 303.646272 
L 584.013797 303.408489 
L 585.349906 303.033141 
L 586.860884 302.557876 
L 587.653654 302.365574 
L 589.788895 304.883547 
L 591.925329 307.40417 
L 591.677267 311.853972 
L 591.980656 311.897228 
L 591.792913 314.255687 
L 591.558537 317.203968 
L 591.346334 319.873092 
L 591.18256 321.853582 
L 590.93918 324.801201 
L 590.696019 327.74863 
L 590.46009 330.606488 
L 590.291055 332.619187 
L 590.066785 332.804855 
L 589.5933 333.403962 
L 590.362028 334.545951 
L 590.877618 335.310728 
L 592.1043 336.864125 
L 593.247558 338.478178 
L 594.387109 340.089765 
L 596.107777 342.491233 
L 596.715012 343.278337 
L 597.361507 344.030515 
L 598.010703 344.751402 
L 598.706777 345.492058 
L 599.456354 346.14987 
L 600.923681 347.468105 
L 602.728557 348.992106 
L 603.932902 350.012172 
L 605.435542 351.285563 
L 606.149683 351.933083 
L 606.906112 352.77883 
L 607.497691 353.537904 
L 607.889059 354.20726 
L 608.292603 355.080442 
L 608.608134 355.98471 
L 608.829938 356.900552 
L 608.959025 357.87299 
L 608.989491 358.830015 
L 608.933329 359.805142 
L 608.769101 361.791518 
L 608.614016 363.729626 
L 608.455317 365.709461 
L 608.293915 367.661587 
L 608.083241 369.614987 
L 607.93549 370.577677 
L 607.700448 371.489382 
L 607.542466 371.915398 
L 607.367765 372.386494 
L 606.952031 373.24242 
L 606.448668 374.058799 
L 605.872521 374.813583 
L 605.215584 375.511071 
L 604.495826 376.136612 
L 603.715024 376.690063 
L 602.865924 377.124439 
L 601.99567 377.502732 
L 601.216078 377.852784 
L 602.733919 377.965065 
L 608.089264 378.364761 
L 613.066574 378.766333 
L 616.062943 378.986546 
L 616.219365 378.997996 
L 696.811879 364.707928 
L 699.45135 385.372586 
L 702.426994 385.59522 
L 702.412361 385.799998 
L 702.392467 386.072695 
L 702.391816 386.080963 
L 702.337697 386.834104 
L 702.294701 387.432087 
L 702.278424 387.664441 
L 702.135692 389.698127 
L 702.097249 389.699493 
L 702.092167 389.768009 
L 701.834727 393.149311 
L 701.742462 394.36383 
L 701.736122 394.447502 
L 701.729574 394.531562 
L 701.723731 394.611895 
L 701.443452 398.374539 
L 701.180125 401.845647 
L 699.618401 401.963315 
L 699.611891 401.963704 
L 698.556243 402.01665 
L 695.815855 402.154297 
L 694.060837 402.295836 
L 693.792039 402.31589 
L 693.650491 402.327866 
L 691.048748 402.547911 
L 687.574715 402.794815 
L 684.685466 403.061557 
L 680.990661 403.381575 
L 679.994392 403.457282 
L 680.016965 403.651177 
L 680.148492 404.787986 
L 680.28218 405.944003 
L 680.418837 407.124978 
L 680.438363 407.296283 
L 680.441347 407.320845 
L 680.693207 409.528995 
L 680.791688 410.434485 
L 680.943483 411.986141 
L 681.029719 412.867176 
L 681.156913 414.143767 
L 681.176268 414.339734 
L 681.370514 416.174312 
L 681.382516 416.295851 
L 681.388578 416.354649 
L 681.617506 418.519862 
L 681.850149 420.864376 
L 682.033482 422.700987 
L 682.474367 422.71623 
L 682.912898 422.731205 
L 683.352406 422.746409 
L 683.731942 422.759361 
L 683.787194 422.761469 
L 683.789554 422.761542 
L 684.669734 422.805219 
L 685.548486 422.818666 
L 686.4225 422.966364 
L 687.674086 423.177692 
L 688.141703 423.219643 
L 688.958975 423.196677 
L 689.216971 423.173906 
L 689.822631 423.125233 
L 690.771413 422.930143 
L 691.447816 422.764681 
L 692.27677 422.472538 
L 693.038123 422.208493 
L 693.098664 422.198733 
L 693.436578 422.144517 
L 693.827803 422.09788 
L 694.552189 421.947155 
L 695.33189 421.427944 
L 697.886416 419.343253 
L 698.306567 419.049872 
L 699.225786 418.495966 
L 699.303572 418.457146 
L 699.576571 418.306598 
L 700.40245 417.918915 
L 701.23158 417.5789 
L 701.873237 417.412032 
L 702.594375 417.266001 
L 702.262962 422.062107 
L 702.073444 424.856667 
L 701.297118 425.932826 
L 699.945103 427.818692 
L 698.626669 429.658064 
L 697.678836 430.948153 
L 696.761636 432.196975 
L 696.75793 432.259416 
L 696.7255 432.785111 
L 696.709067 433.042327 
L 696.608609 434.613785 
L 696.532345 435.804734 
L 696.489995 436.466482 
L 696.391723 437.954929 
L 696.280907 439.632433 
L 696.155211 441.523589 
L 696.149973 441.603744 
L 695.981876 444.298537 
L 695.871657 446.027172 
L 695.756309 447.83261 
L 695.640839 449.648505 
L 695.626697 449.838302 
L 695.476528 451.88519 
L 695.458203 452.750357 
L 696.846713 452.747023 
L 696.618576 452.913775 
L 696.883964 453.501239 
L 697.070754 453.849643 
L 698.224604 455.88052 
L 699.727291 458.603905 
L 700.281249 459.581049 
L 701.45906 461.653563 
L 701.796466 462.264798 
L 703.564629 465.374045 
L 704.436965 466.91904 
L 705.787536 469.283743 
L 706.948431 471.342381 
L 708.121828 473.415041 
L 708.59473 474.247417 
L 709.748497 476.272123 
L 710.391654 477.493665 
L 711.941718 480.140192 
L 711.25109 480.616468 
L 709.385676 480.524946 
L 707.204867 480.90255 
L 705.334424 481.226551 
L 701.75265 481.541184 
L 699.14395 483.691565 
L 696.988367 485.221478 
L 694.961533 486.973312 
L 693.815545 489.124783 
L 694.29255 492.955239 
L 696.723639 495.749329 
L 697.4623 496.771881 
L 695.567427 497.724827 
L 692.786575 499.150504 
L 690.462629 500.337865 
L 689.57023 501.655408 
L 688.090455 502.688299 
L 686.788378 503.713113 
L 686.764327 505.53857 
L 686.760528 505.808416 
L 685.019981 508.361671 
L 684.181909 509.61247 
L 683.057389 511.281638 
L 684.163653 511.985535 
L 686.846124 513.695091 
L 689.060246 515.104613 
L 691.003966 516.34593 
L 694.034394 518.2751 
L 695.629389 519.284832 
L 698.049427 520.832012 
L 700.376399 522.314779 
L 701.799287 523.232612 
L 703.297722 524.180256 
L 705.383169 525.494375 
L 707.667689 526.956655 
L 708.952711 527.788387 
L 711.195518 529.241749 
L 713.913151 530.99836 
L 715.40271 531.977294 
L 716.856671 532.955529 
L 715.512746 535.163889 
L 714.172241 537.371782 
L 712.906367 538.187013 
L 711.657653 538.994903 
L 709.307195 540.514683 
L 709.76901 541.149186 
L 710.69103 542.387164 
L 712.312132 544.61363 
L 713.044165 545.598608 
L 715.1797 548.51951 
L 717.371385 551.577797 
L 718.572554 553.226798 
L 719.843249 554.97134 
L 721.421732 557.15183 
L 722.878799 559.119742 
L 723.119381 559.398256 
L 724.440324 559.256453 
L 724.4459 559.373851 
L 724.564962 562.318017 
L 724.606346 563.341559 
L 723.001679 563.581796 
L 722.472772 560.692046 
L 719.479156 560.783124 
L 719.511384 563.332829 
L 719.619699 565.724286 
L 719.735548 567.785429 
L 721.439214 568.345913 
L 723.490805 569.031626 
L 724.137944 571.310968 
L 722.176513 571.417054 
L 719.832929 571.543544 
L 719.960672 573.65795 
L 717.890806 573.795252 
L 716.856337 573.751153 
L 715.305392 573.786976 
L 713.806968 573.802565 
L 713.524491 574.347262 
L 712.319776 575.620078 
L 711.654831 577.164385 
L 711.55811 577.513023 
L 711.010993 580.409276 
L 710.862915 581.576466 
L 710.611589 583.176357 
L 710.118188 585.559822 
L 708.686946 587.127725 
L 705.059386 588.429647 
L 704.227785 591.097206 
L 703.657863 592.924961 
L 701.600977 595.748858 
L 704.24747 597.921572 
L 706.968288 600.14602 
L 708.816847 601.657478 
L 710.947288 603.397838 
L 713.093253 605.135772 
L 712.768999 606.086085 
L 711.422336 607.92538 
L 710.259144 609.514481 
L 708.894058 611.368034 
L 707.732696 612.945184 
L 705.812029 615.567818 
L 704.829588 616.890101 
L 703.897107 618.1289 
L 703.442446 617.736783 
L 701.44602 616.039447 
L 699.723215 614.564413 
L 699.515716 614.380923 
L 699.306905 614.201733 
L 698.207988 613.262441 
L 697.725233 612.849741 
L 696.683537 611.958825 
L 696.45249 611.7677 
L 695.502321 610.978912 
L 694.381998 610.049655 
L 694.27625 609.961898 
L 692.402748 608.384225 
L 692.34281 608.333616 
L 694.508916 605.276707 
L 692.39232 603.843815 
L 691.030749 602.909458 
L 690.291665 602.427252 
L 688.487972 601.179222 
L 687.492549 600.501792 
L 686.040418 599.499767 
L 683.874713 598.013638 
L 683.140164 597.515841 
L 682.148264 596.842918 
L 680.977733 596.048232 
L 680.193895 595.516368 
L 678.266972 594.222283 
L 675.659068 592.390517 
L 674.388357 593.07091 
L 672.293111 594.167482 
L 671.965975 594.338728 
L 670.507622 595.10336 
L 668.936848 595.927101 
L 666.808101 597.043674 
L 666.715594 597.09351 
L 665.891466 597.536182 
L 664.359706 598.359028 
L 661.236719 600.037102 
L 660.478246 600.480657 
L 657.983638 601.938216 
L 655.258753 603.533215 
L 654.587761 604.531867 
L 654.49104 604.675323 
L 651.884165 606.270885 
L 650.800813 606.952797 
L 649.248322 607.91733 
L 648.804348 607.171571 
L 646.667113 607.581045 
L 645.182874 607.865522 
L 644.35023 608.02552 
L 644.19085 608.058923 
L 643.456779 608.201621 
L 640.440471 608.781467 
L 637.026433 609.312351 
L 634.714576 609.671562 
L 634.629297 609.684746 
L 632.553462 610.0299 
L 631.393963 610.311863 
L 630.800761 610.455992 
L 630.571363 610.511556 
L 629.825689 610.623415 
L 626.694137 611.094991 
L 623.618688 611.557521 
L 621.52222 611.872879 
L 620.706684 611.995709 
L 617.214926 612.537952 
L 613.722377 613.081677 
L 613.415988 610.815197 
L 611.775633 611.259048 
L 608.654225 612.103699 
L 605.007105 613.060043 
L 603.391361 613.485045 
L 600.859331 614.151789 
L 600.609825 614.217078 
L 599.674499 614.471057 
L 596.559693 615.31886 
L 596.628983 618.031037 
L 596.656647 619.097909 
L 593.716504 620.477966 
L 590.610076 621.936191 
L 587.708019 622.458548 
L 584.810339 622.980135 
L 581.917686 623.505512 
L 580.672401 623.723147 
L 568.122101 625.983895 
L 566.040003 628.376111 
L 566.512782 630.365395 
L 566.890541 631.893622 
L 567.291618 632.798751 
L 567.279209 632.979343 
L 566.991476 633.589423 
L 566.25184 633.944282 
L 565.587529 634.116683 
L 564.025952 634.408179 
L 562.659779 634.215524 
L 562.475211 634.186346 
L 562.133363 634.394818 
L 561.943382 634.435931 
L 561.121071 635.157197 
L 560.244047 636.042411 
L 559.880505 636.394107 
L 559.058916 637.131989 
L 558.275591 638.411532 
L 557.295487 640.137536 
L 555.152931 643.84938 
L 554.146468 644.946299 
L 553.491987 645.582429 
L 550.030265 648.793841 
L 548.82337 649.276074 
L 548.549048 649.348062 
L 548.77415 650.122982 
L 549.12195 650.544946 
L 549.072199 651.490114 
L 548.694662 651.96734 
L 548.56463 652.355996 
L 547.604716 652.374315 
L 547.249525 652.451804 
L 546.899798 652.63089 
L 546.66362 652.915957 
L 546.585775 653.219727 
L 546.718608 653.424752 
L 546.909945 653.43634 
L 545.923971 655.374621 
L 544.461725 657.945498 
L 544.064467 658.514315 
L 543.726232 659.072843 
L 543.035724 660.495168 
L 542.670526 661.585722 
L 542.292048 663.431699 
L 542.042235 664.210516 
L 541.619973 667.042891 
L 541.270732 670.239153 
L 540.320179 670.782351 
L 539.277941 671.157675 
L 538.24972 670.604147 
L 538.089802 669.660279 
L 537.055842 667.031952 
L 536.564444 666.296362 
L 535.963664 665.829481 
L 535.901478 665.491377 
L 534.983076 662.715323 
L 534.352696 662.003666 
L 533.87031 662.329653 
L 533.459443 662.735109 
L 533.038785 663.19356 
L 532.683523 663.429959 
L 532.150245 663.865162 
L 531.836933 664.023469 
L 531.221547 664.580977 
L 531.00274 665.020322 
L 530.809328 665.659532 
L 530.669095 666.387534 
L 530.426305 666.922278 
L 530.260851 667.895818 
L 530.322455 668.065964 
L 530.210123 668.625273 
L 529.632055 668.57766 
L 529.560006 668.934106 
L 529.268556 669.622924 
L 528.647304 671.777943 
L 528.283742 672.496019 
L 528.271555 672.678398 
L 527.825437 673.500806 
L 526.497669 675.538745 
L 525.03635 677.12797 
L 524.700121 677.670835 
L 524.029352 678.408707 
L 522.734274 679.152117 
L 522.490485 679.264741 
L 521.921726 679.506747 
L 521.23642 679.996154 
L 521.00779 680.100741 
L 520.245007 680.425666 
L 518.843542 680.967283 
L 518.161588 680.889062 
L 516.92707 680.482056 
L 516.452295 680.253233 
L 510.377068 686.471716 
L 509.250362 687.44204 
L 508.69302 687.882587 
L 507.944779 688.400637 
L 506.396852 689.614437 
L 508.204764 692.741828 
L 507.912264 692.952129 
L 507.478689 693.268621 
L 506.165138 694.248123 
L 503.460331 696.392387 
L 500.753762 698.54062 
L 498.998296 699.955692 
L 497.239664 701.373466 
L 496.310552 702.097887 
L 494.819351 703.269907 
L 494.768411 703.307499 
L 495.524759 703.701296 
L 495.857814 703.777887 
L 496.229017 703.913411 
L 496.506001 704.062572 
L 496.761591 704.22532 
L 497.095065 704.484862 
L 496.764893 704.771654 
L 497.157375 705.163159 
L 497.359987 705.406854 
L 497.550263 705.669924 
L 498.026213 706.44098 
L 498.60961 707.590314 
L 499.329779 708.760805 
L 499.390503 709.00333 
L 497.891256 709.176329 
L 497.048644 709.107981 
L 496.730161 709.159883 
L 496.433543 709.270441 
L 495.557039 709.854315 
L 494.798975 710.27193 
L 494.536194 710.304937 
L 492.356383 710.932236 
L 491.666401 711.133004 
L 490.250946 711.369732 
L 489.215994 711.65009 
L 488.512505 711.747476 
L 487.668404 711.799938 
L 486.820625 711.802768 
L 484.382098 711.448472 
L 483.744767 711.442827 
L 483.665864 711.504478 
L 483.105087 711.738258 
L 480.302183 712.977092 
L 477.822077 714.392093 
L 477.193354 714.902783 
L 476.677319 715.440021 
L 475.038804 717.551959 
L 474.544199 718.294863 
L 472.618465 722.523896 
L 472.157662 723.328568 
L 471.777857 723.942779 
L 471.320591 724.527721 
L 470.957266 724.867319 
L 467.73194 726.349091 
" style="fill:#c5d4c9;"/>
   </g>
   <g id="matplotlib.axis_1">
    <g id="xtick_1">
     <g id="line2d_1">
      <defs>
       <path d="M 0 0 
L 0 3.5 
" id="m24d09a34f9" style="stroke:#000000;stroke-width:0.8;"/>
      </defs>
      <g>
       <use style="stroke:#000000;stroke-width:0.8;" x="225.907521" xlink:href="#m24d09a34f9" y="756"/>
      </g>
     </g>
     <g id="text_1">
      <!-- 20.9 -->
      <g transform="translate(214.774709 770.598438)scale(0.1 -0.1)">
       <defs>
        <path d="M 19.1875 8.296875 
L 53.609375 8.296875 
L 53.609375 0 
L 7.328125 0 
L 7.328125 8.296875 
Q 12.9375 14.109375 22.625 23.890625 
Q 32.328125 33.6875 34.8125 36.53125 
Q 39.546875 41.84375 41.421875 45.53125 
Q 43.3125 49.21875 43.3125 52.78125 
Q 43.3125 58.59375 39.234375 62.25 
Q 35.15625 65.921875 28.609375 65.921875 
Q 23.96875 65.921875 18.8125 64.3125 
Q 13.671875 62.703125 7.8125 59.421875 
L 7.8125 69.390625 
Q 13.765625 71.78125 18.9375 73 
Q 24.125 74.21875 28.421875 74.21875 
Q 39.75 74.21875 46.484375 68.546875 
Q 53.21875 62.890625 53.21875 53.421875 
Q 53.21875 48.921875 51.53125 44.890625 
Q 49.859375 40.875 45.40625 35.40625 
Q 44.1875 33.984375 37.640625 27.21875 
Q 31.109375 20.453125 19.1875 8.296875 
z
" id="DejaVuSans-50"/>
        <path d="M 31.78125 66.40625 
Q 24.171875 66.40625 20.328125 58.90625 
Q 16.5 51.421875 16.5 36.375 
Q 16.5 21.390625 20.328125 13.890625 
Q 24.171875 6.390625 31.78125 6.390625 
Q 39.453125 6.390625 43.28125 13.890625 
Q 47.125 21.390625 47.125 36.375 
Q 47.125 51.421875 43.28125 58.90625 
Q 39.453125 66.40625 31.78125 66.40625 
z
M 31.78125 74.21875 
Q 44.046875 74.21875 50.515625 64.515625 
Q 56.984375 54.828125 56.984375 36.375 
Q 56.984375 17.96875 50.515625 8.265625 
Q 44.046875 -1.421875 31.78125 -1.421875 
Q 19.53125 -1.421875 13.0625 8.265625 
Q 6.59375 17.96875 6.59375 36.375 
Q 6.59375 54.828125 13.0625 64.515625 
Q 19.53125 74.21875 31.78125 74.21875 
z
" id="DejaVuSans-48"/>
        <path d="M 10.6875 12.40625 
L 21 12.40625 
L 21 0 
L 10.6875 0 
z
" id="DejaVuSans-46"/>
        <path d="M 10.984375 1.515625 
L 10.984375 10.5 
Q 14.703125 8.734375 18.5 7.8125 
Q 22.3125 6.890625 25.984375 6.890625 
Q 35.75 6.890625 40.890625 13.453125 
Q 46.046875 20.015625 46.78125 33.40625 
Q 43.953125 29.203125 39.59375 26.953125 
Q 35.25 24.703125 29.984375 24.703125 
Q 19.046875 24.703125 12.671875 31.3125 
Q 6.296875 37.9375 6.296875 49.421875 
Q 6.296875 60.640625 12.9375 67.421875 
Q 19.578125 74.21875 30.609375 74.21875 
Q 43.265625 74.21875 49.921875 64.515625 
Q 56.59375 54.828125 56.59375 36.375 
Q 56.59375 19.140625 48.40625 8.859375 
Q 40.234375 -1.421875 26.421875 -1.421875 
Q 22.703125 -1.421875 18.890625 -0.6875 
Q 15.09375 0.046875 10.984375 1.515625 
z
M 30.609375 32.421875 
Q 37.25 32.421875 41.125 36.953125 
Q 45.015625 41.5 45.015625 49.421875 
Q 45.015625 57.28125 41.125 61.84375 
Q 37.25 66.40625 30.609375 66.40625 
Q 23.96875 66.40625 20.09375 61.84375 
Q 16.21875 57.28125 16.21875 49.421875 
Q 16.21875 41.5 20.09375 36.953125 
Q 23.96875 32.421875 30.609375 32.421875 
z
" id="DejaVuSans-57"/>
       </defs>
       <use xlink:href="#DejaVuSans-50"/>
       <use x="63.623047" xlink:href="#DejaVuSans-48"/>
       <use x="127.246094" xlink:href="#DejaVuSans-46"/>
       <use x="159.033203" xlink:href="#DejaVuSans-57"/>
      </g>
     </g>
    </g>
    <g id="xtick_2">
     <g id="line2d_2">
      <g>
       <use style="stroke:#000000;stroke-width:0.8;" x="360.272932" xlink:href="#m24d09a34f9" y="756"/>
      </g>
     </g>
     <g id="text_2">
      <!-- 21.0 -->
      <g transform="translate(349.14012 770.598438)scale(0.1 -0.1)">
       <defs>
        <path d="M 12.40625 8.296875 
L 28.515625 8.296875 
L 28.515625 63.921875 
L 10.984375 60.40625 
L 10.984375 69.390625 
L 28.421875 72.90625 
L 38.28125 72.90625 
L 38.28125 8.296875 
L 54.390625 8.296875 
L 54.390625 0 
L 12.40625 0 
z
" id="DejaVuSans-49"/>
       </defs>
       <use xlink:href="#DejaVuSans-50"/>
       <use x="63.623047" xlink:href="#DejaVuSans-49"/>
       <use x="127.246094" xlink:href="#DejaVuSans-46"/>
       <use x="159.033203" xlink:href="#DejaVuSans-48"/>
      </g>
     </g>
    </g>
    <g id="xtick_3">
     <g id="line2d_3">
      <g>
       <use style="stroke:#000000;stroke-width:0.8;" x="494.638344" xlink:href="#m24d09a34f9" y="756"/>
      </g>
     </g>
     <g id="text_3">
      <!-- 21.1 -->
      <g transform="translate(483.505531 770.598438)scale(0.1 -0.1)">
       <use xlink:href="#DejaVuSans-50"/>
       <use x="63.623047" xlink:href="#DejaVuSans-49"/>
       <use x="127.246094" xlink:href="#DejaVuSans-46"/>
       <use x="159.033203" xlink:href="#DejaVuSans-49"/>
      </g>
     </g>
    </g>
    <g id="xtick_4">
     <g id="line2d_4">
      <g>
       <use style="stroke:#000000;stroke-width:0.8;" x="629.003755" xlink:href="#m24d09a34f9" y="756"/>
      </g>
     </g>
     <g id="text_4">
      <!-- 21.2 -->
      <g transform="translate(617.870943 770.598438)scale(0.1 -0.1)">
       <use xlink:href="#DejaVuSans-50"/>
       <use x="63.623047" xlink:href="#DejaVuSans-49"/>
       <use x="127.246094" xlink:href="#DejaVuSans-46"/>
       <use x="159.033203" xlink:href="#DejaVuSans-50"/>
      </g>
     </g>
    </g>
   </g>
   <g id="matplotlib.axis_2">
    <g id="ytick_1">
     <g id="line2d_5">
      <defs>
       <path d="M 0 0 
L -3.5 0 
" id="ma2849047fe" style="stroke:#000000;stroke-width:0.8;"/>
      </defs>
      <g>
       <use style="stroke:#000000;stroke-width:0.8;" x="132.813019" xlink:href="#ma2849047fe" y="721.632065"/>
      </g>
     </g>
     <g id="text_5">
      <!-- 52.10 -->
      <g transform="translate(97.184894 725.431284)scale(0.1 -0.1)">
       <defs>
        <path d="M 10.796875 72.90625 
L 49.515625 72.90625 
L 49.515625 64.59375 
L 19.828125 64.59375 
L 19.828125 46.734375 
Q 21.96875 47.46875 24.109375 47.828125 
Q 26.265625 48.1875 28.421875 48.1875 
Q 40.625 48.1875 47.75 41.5 
Q 54.890625 34.8125 54.890625 23.390625 
Q 54.890625 11.625 47.5625 5.09375 
Q 40.234375 -1.421875 26.90625 -1.421875 
Q 22.3125 -1.421875 17.546875 -0.640625 
Q 12.796875 0.140625 7.71875 1.703125 
L 7.71875 11.625 
Q 12.109375 9.234375 16.796875 8.0625 
Q 21.484375 6.890625 26.703125 6.890625 
Q 35.15625 6.890625 40.078125 11.328125 
Q 45.015625 15.765625 45.015625 23.390625 
Q 45.015625 31 40.078125 35.4375 
Q 35.15625 39.890625 26.703125 39.890625 
Q 22.75 39.890625 18.8125 39.015625 
Q 14.890625 38.140625 10.796875 36.28125 
z
" id="DejaVuSans-53"/>
       </defs>
       <use xlink:href="#DejaVuSans-53"/>
       <use x="63.623047" xlink:href="#DejaVuSans-50"/>
       <use x="127.246094" xlink:href="#DejaVuSans-46"/>
       <use x="159.033203" xlink:href="#DejaVuSans-49"/>
       <use x="222.65625" xlink:href="#DejaVuSans-48"/>
      </g>
     </g>
    </g>
    <g id="ytick_2">
     <g id="line2d_6">
      <g>
       <use style="stroke:#000000;stroke-width:0.8;" x="132.813019" xlink:href="#ma2849047fe" y="611.937388"/>
      </g>
     </g>
     <g id="text_6">
      <!-- 52.15 -->
      <g transform="translate(97.184894 615.736606)scale(0.1 -0.1)">
       <use xlink:href="#DejaVuSans-53"/>
       <use x="63.623047" xlink:href="#DejaVuSans-50"/>
       <use x="127.246094" xlink:href="#DejaVuSans-46"/>
       <use x="159.033203" xlink:href="#DejaVuSans-49"/>
       <use x="222.65625" xlink:href="#DejaVuSans-53"/>
      </g>
     </g>
    </g>
    <g id="ytick_3">
     <g id="line2d_7">
      <g>
       <use style="stroke:#000000;stroke-width:0.8;" x="132.813019" xlink:href="#ma2849047fe" y="502.24271"/>
      </g>
     </g>
     <g id="text_7">
      <!-- 52.20 -->
      <g transform="translate(97.184894 506.041929)scale(0.1 -0.1)">
       <use xlink:href="#DejaVuSans-53"/>
       <use x="63.623047" xlink:href="#DejaVuSans-50"/>
       <use x="127.246094" xlink:href="#DejaVuSans-46"/>
       <use x="159.033203" xlink:href="#DejaVuSans-50"/>
       <use x="222.65625" xlink:href="#DejaVuSans-48"/>
      </g>
     </g>
    </g>
    <g id="ytick_4">
     <g id="line2d_8">
      <g>
       <use style="stroke:#000000;stroke-width:0.8;" x="132.813019" xlink:href="#ma2849047fe" y="392.548033"/>
      </g>
     </g>
     <g id="text_8">
      <!-- 52.25 -->
      <g transform="translate(97.184894 396.347252)scale(0.1 -0.1)">
       <use xlink:href="#DejaVuSans-53"/>
       <use x="63.623047" xlink:href="#DejaVuSans-50"/>
       <use x="127.246094" xlink:href="#DejaVuSans-46"/>
       <use x="159.033203" xlink:href="#DejaVuSans-50"/>
       <use x="222.65625" xlink:href="#DejaVuSans-53"/>
      </g>
     </g>
    </g>
    <g id="ytick_5">
     <g id="line2d_9">
      <g>
       <use style="stroke:#000000;stroke-width:0.8;" x="132.813019" xlink:href="#ma2849047fe" y="282.853356"/>
      </g>
     </g>
     <g id="text_9">
      <!-- 52.30 -->
      <g transform="translate(97.184894 286.652575)scale(0.1 -0.1)">
       <defs>
        <path d="M 40.578125 39.3125 
Q 47.65625 37.796875 51.625 33 
Q 55.609375 28.21875 55.609375 21.1875 
Q 55.609375 10.40625 48.1875 4.484375 
Q 40.765625 -1.421875 27.09375 -1.421875 
Q 22.515625 -1.421875 17.65625 -0.515625 
Q 12.796875 0.390625 7.625 2.203125 
L 7.625 11.71875 
Q 11.71875 9.328125 16.59375 8.109375 
Q 21.484375 6.890625 26.8125 6.890625 
Q 36.078125 6.890625 40.9375 10.546875 
Q 45.796875 14.203125 45.796875 21.1875 
Q 45.796875 27.640625 41.28125 31.265625 
Q 36.765625 34.90625 28.71875 34.90625 
L 20.21875 34.90625 
L 20.21875 43.015625 
L 29.109375 43.015625 
Q 36.375 43.015625 40.234375 45.921875 
Q 44.09375 48.828125 44.09375 54.296875 
Q 44.09375 59.90625 40.109375 62.90625 
Q 36.140625 65.921875 28.71875 65.921875 
Q 24.65625 65.921875 20.015625 65.03125 
Q 15.375 64.15625 9.8125 62.3125 
L 9.8125 71.09375 
Q 15.4375 72.65625 20.34375 73.4375 
Q 25.25 74.21875 29.59375 74.21875 
Q 40.828125 74.21875 47.359375 69.109375 
Q 53.90625 64.015625 53.90625 55.328125 
Q 53.90625 49.265625 50.4375 45.09375 
Q 46.96875 40.921875 40.578125 39.3125 
z
" id="DejaVuSans-51"/>
       </defs>
       <use xlink:href="#DejaVuSans-53"/>
       <use x="63.623047" xlink:href="#DejaVuSans-50"/>
       <use x="127.246094" xlink:href="#DejaVuSans-46"/>
       <use x="159.033203" xlink:href="#DejaVuSans-51"/>
       <use x="222.65625" xlink:href="#DejaVuSans-48"/>
      </g>
     </g>
    </g>
    <g id="ytick_6">
     <g id="line2d_10">
      <g>
       <use style="stroke:#000000;stroke-width:0.8;" x="132.813019" xlink:href="#ma2849047fe" y="173.158679"/>
      </g>
     </g>
     <g id="text_10">
      <!-- 52.35 -->
      <g transform="translate(97.184894 176.957897)scale(0.1 -0.1)">
       <use xlink:href="#DejaVuSans-53"/>
       <use x="63.623047" xlink:href="#DejaVuSans-50"/>
       <use x="127.246094" xlink:href="#DejaVuSans-46"/>
       <use x="159.033203" xlink:href="#DejaVuSans-51"/>
       <use x="222.65625" xlink:href="#DejaVuSans-53"/>
      </g>
     </g>
    </g>
   </g>
   <g id="patch_3">
    <path d="M 132.813019 756 
L 132.813019 103.68 
" style="fill:none;stroke:#000000;stroke-linecap:square;stroke-linejoin:miter;stroke-width:0.8;"/>
   </g>
   <g id="patch_4">
    <path d="M 752.786981 756 
L 752.786981 103.68 
" style="fill:none;stroke:#000000;stroke-linecap:square;stroke-linejoin:miter;stroke-width:0.8;"/>
   </g>
   <g id="patch_5">
    <path d="M 132.813019 756 
L 752.786981 756 
" style="fill:none;stroke:#000000;stroke-linecap:square;stroke-linejoin:miter;stroke-width:0.8;"/>
   </g>
   <g id="patch_6">
    <path d="M 132.813019 103.68 
L 752.786981 103.68 
" style="fill:none;stroke:#000000;stroke-linecap:square;stroke-linejoin:miter;stroke-width:0.8;"/>
   </g>
  </g>
 </g>
 <defs>
  <clipPath id="pa2d0e265fa">
   <rect height="652.32" width="619.973962" x="132.813019" y="103.68"/>
  </clipPath>
 </defs>
</svg>
