<?xml version="1.0" encoding="utf-8" standalone="no"?>
<!DOCTYPE svg PUBLIC "-//W3C//DTD SVG 1.1//EN"
  "http://www.w3.org/Graphics/SVG/1.1/DTD/svg11.dtd">
<!-- Created with matplotlib (https://matplotlib.org/) -->
<svg height="288pt" version="1.1" viewBox="0 0 432 288" width="432pt" xmlns="http://www.w3.org/2000/svg" xmlns:xlink="http://www.w3.org/1999/xlink">
 <metadata>
  <rdf:RDF xmlns:cc="http://creativecommons.org/ns#" xmlns:dc="http://purl.org/dc/elements/1.1/" xmlns:rdf="http://www.w3.org/1999/02/22-rdf-syntax-ns#">
   <cc:Work>
    <dc:type rdf:resource="http://purl.org/dc/dcmitype/StillImage"/>
    <dc:date>2021-03-21T17:16:02.225497</dc:date>
    <dc:format>image/svg+xml</dc:format>
    <dc:creator>
     <cc:Agent>
      <dc:title>Matplotlib v3.3.4, https://matplotlib.org/</dc:title>
     </cc:Agent>
    </dc:creator>
   </cc:Work>
  </rdf:RDF>
 </metadata>
 <defs>
  <style type="text/css">*{stroke-linecap:butt;stroke-linejoin:round;}</style>
 </defs>
 <g id="figure_1">
  <g id="patch_1">
   <path d="M 0 288 
L 432 288 
L 432 0 
L 0 0 
z
" style="fill:#ffffff;"/>
  </g>
  <g id="axes_1">
   <g id="patch_2">
    <path d="M 86.880531 252 
L 355.919469 252 
L 355.919469 34.56 
L 86.880531 34.56 
z
" style="fill:#ffffff;"/>
   </g>
   <g id="PatchCollection_1">
    <path clip-path="url(#pe435eec222)" d="M 99.209822 205.038882 
L 99.109574 205.918726 
L 99.177007 206.16753 
L 99.538252 206.677348 
L 99.755821 206.872791 
L 99.911575 207.024692 
L 100.096862 207.095684 
L 100.350165 206.997643 
L 100.480327 206.812301 
L 100.855328 206.98061 
L 101.340614 207.076098 
L 102.275214 207.473387 
L 102.59835 207.681747 
L 102.876706 207.76264 
L 102.942203 208.50944 
L 103.392105 209.282302 
L 103.946664 209.946385 
L 104.520084 210.948338 
L 104.610719 211.22967 
L 104.941106 211.445581 
L 105.269301 211.86038 
L 105.528837 212.345998 
L 106.18262 212.967375 
L 106.049977 213.787173 
L 106.249506 214.255439 
L 106.294535 214.836469 
L 106.173616 215.032802 
L 105.86987 215.171425 
L 105.835284 215.359362 
L 105.764467 215.613983 
L 105.500888 215.929895 
L 105.425168 216.013294 
L 105.3983 216.093376 
L 105.450891 216.212373 
L 105.975971 216.375951 
L 106.079601 216.316931 
L 107.060732 216.442382 
L 107.178594 216.607253 
L 107.229159 217.081039 
L 107.219347 217.371263 
L 106.86565 218.283988 
L 106.815321 218.457251 
L 106.792449 219.446306 
L 107.791398 221.85644 
L 107.840597 222.077761 
L 107.967711 222.475376 
L 107.909434 223.045997 
L 107.725573 223.43915 
L 107.588477 223.620068 
L 107.543314 224.14752 
L 107.762891 225.63404 
L 108.429134 225.929417 
L 109.886297 226.884631 
L 110.379191 227.080391 
L 111.628996 228.058826 
L 111.972932 229.181812 
L 112.421434 229.879206 
L 113.11329 230.698161 
L 113.128887 231.313888 
L 113.070987 231.688403 
L 113.594045 232.364132 
L 113.919336 232.903572 
L 114.349884 233.751183 
L 115.055998 234.908267 
L 117.869851 235.824383 
L 118.026254 235.875284 
L 118.425817 235.058507 
L 118.645775 234.77038 
L 118.832924 234.60035 
L 119.340999 234.382625 
L 119.494758 234.231525 
L 120.073791 233.024272 
L 120.430504 232.085392 
L 120.686895 231.288302 
L 120.830156 230.958996 
L 121.061559 230.608703 
L 121.847349 229.554253 
L 122.188895 229.186946 
L 122.610291 228.763757 
L 122.870928 228.517178 
L 123.109728 228.15265 
L 123.215497 227.95893 
L 123.29861 227.827539 
L 123.331666 227.709455 
L 123.387907 227.161966 
L 123.613961 227.175161 
L 123.813734 226.928899 
L 123.868464 226.936899 
L 124.254114 226.411834 
L 125.09013 225.466951 
L 124.875696 224.978513 
L 124.328333 224.625284 
L 123.970146 223.392117 
L 124.390638 221.89943 
L 124.421342 221.790328 
L 124.429154 221.762701 
L 125.064064 221.303239 
L 125.97288 221.138825 
L 126.091717 220.758736 
L 126.110794 220.696469 
L 126.416976 220.518502 
L 126.925742 219.450733 
L 127.208503 218.590077 
L 127.372372 217.605189 
L 127.599212 217.063825 
L 127.70648 216.599586 
L 127.848497 216.1469 
L 127.85279 215.632021 
L 127.819923 214.928024 
L 127.873297 214.924942 
L 128.222719 214.905271 
L 128.676665 214.779946 
L 128.746215 214.614356 
L 128.796354 213.901812 
L 128.748312 212.156573 
L 128.677615 211.695662 
L 128.629827 211.359938 
L 128.765299 211.18375 
L 129.017371 210.855815 
L 129.291389 210.499283 
L 129.499167 209.899977 
L 129.389454 209.027628 
L 130.37932 208.693918 
L 131.502128 208.668105 
L 132.320091 208.436695 
L 132.989278 208.312801 
L 133.729224 208.31649 
L 134.361157 208.534376 
L 134.689376 208.216245 
L 135.187757 208.042637 
L 135.501553 207.93332 
L 136.039776 207.745663 
L 136.574573 207.559752 
L 137.258772 207.321207 
L 137.73578 207.155161 
L 138.39389 206.922981 
L 142.197613 205.632871 
L 142.458835 205.582723 
L 142.958317 205.593829 
L 143.497084 205.722087 
L 143.893365 205.816635 
L 143.978433 205.92985 
L 144.009996 205.9719 
L 143.962674 206.155597 
L 143.972331 206.604603 
L 144.01139 206.726291 
L 144.128401 207.089912 
L 144.227115 207.461477 
L 144.429488 207.922763 
L 144.933907 208.112767 
L 145.592668 208.25638 
L 147.052127 209.058395 
L 147.375705 209.256354 
L 148.593786 210.001998 
L 148.973394 210.234617 
L 149.634732 210.172678 
L 150.677586 210.07478 
L 151.574464 210.190843 
L 152.403338 210.388036 
L 153.021331 210.535152 
L 153.204024 210.64321 
L 153.62594 210.893529 
L 153.883399 211.350169 
L 154.476176 211.203159 
L 155.133743 211.379808 
L 156.850084 211.61315 
L 158.135629 213.039004 
L 158.956449 213.679809 
L 159.786917 214.08858 
L 160.580262 214.643485 
L 161.262511 214.98999 
L 162.123529 215.42713 
L 164.525378 217.394729 
L 165.186741 218.092464 
L 168.473556 220.205639 
L 169.658731 220.406001 
L 169.72717 220.430993 
L 170.283954 221.047587 
L 171.642826 221.626197 
L 172.719267 222.345317 
L 173.77539 222.548808 
L 173.828864 222.586699 
L 174.046526 222.595969 
L 175.486236 224.05418 
L 175.830155 224.359321 
L 175.994717 224.638437 
L 176.070526 224.893214 
L 175.991109 225.37941 
L 175.523642 227.174895 
L 175.39784 227.524417 
L 175.199213 228.610472 
L 175.459119 228.88696 
L 175.48672 228.979346 
L 176.545731 228.770402 
L 178.29275 228.52305 
L 179.19691 228.85807 
L 180.333183 228.870005 
L 181.565234 229.137974 
L 183.404369 229.887925 
L 185.570115 231.22573 
L 186.071962 231.302021 
L 186.348812 231.344227 
L 187.136983 231.511819 
L 188.128893 231.647058 
L 188.440365 231.68407 
L 189.417425 232.149277 
L 190.130455 232.654581 
L 190.222565 232.640307 
L 190.573377 232.59214 
L 192.035451 233.283455 
L 192.350654 233.932028 
L 192.875261 234.573203 
L 193.555885 235.148493 
L 193.896875 235.134324 
L 193.972914 235.131215 
L 194.026975 235.114306 
L 194.268463 235.038125 
L 194.866722 234.956715 
L 194.976091 234.974206 
L 195.351754 235.034828 
L 195.874691 235.032718 
L 196.039081 235.047479 
L 196.395638 235.079841 
L 196.874551 235.28002 
L 197.066163 235.527722 
L 197.991667 236.182448 
L 198.750773 236.319669 
L 198.828281 236.64902 
L 199.281524 236.856533 
L 199.448925 237.092001 
L 199.915809 237.246324 
L 200.740719 238.169704 
L 200.754184 238.453197 
L 201.226193 238.85731 
L 202.315425 239.50094 
L 202.527894 240.10795 
L 203.074868 240.082898 
L 203.29484 240.345213 
L 204.257527 241.032755 
L 204.485122 241.19536 
L 204.698664 241.347916 
L 204.853722 241.477162 
L 205.157448 241.729824 
L 205.804999 241.944785 
L 205.776914 241.976652 
L 206.300103 242.116364 
L 207.236237 241.307101 
L 207.509093 240.87213 
L 207.609011 240.364717 
L 207.589654 240.122832 
L 207.422624 239.932632 
L 206.917316 239.62667 
L 206.965121 239.434877 
L 207.082893 239.403712 
L 207.657742 239.251254 
L 208.179713 239.044639 
L 208.645313 238.677606 
L 209.033784 238.216633 
L 209.272535 238.052457 
L 209.617574 237.952804 
L 209.684491 237.960259 
L 210.24452 238.022346 
L 210.500256 238.009417 
L 211.105637 237.510569 
L 211.24556 237.090673 
L 211.413781 236.710763 
L 211.63901 236.478616 
L 211.945807 235.990771 
L 212.16346 235.458187 
L 212.177274 235.088187 
L 212.408915 234.842476 
L 212.931747 234.372269 
L 213.769344 233.806876 
L 213.851537 233.747815 
L 214.172436 233.326304 
L 214.624883 232.827636 
L 214.668791 232.651933 
L 214.310396 232.100498 
L 214.331543 231.769903 
L 214.426212 231.595571 
L 214.634061 231.182468 
L 214.770446 230.980553 
L 215.030364 230.932164 
L 215.810843 230.525775 
L 215.999986 230.389991 
L 216.45624 230.228934 
L 216.60006 230.178263 
L 217.017026 230.072453 
L 217.820371 230.445509 
L 218.053714 230.688412 
L 218.542688 230.65498 
L 218.824635 230.614659 
L 219.43523 229.795225 
L 219.62801 229.705848 
L 219.749697 230.20915 
L 220.347584 230.558166 
L 221.061915 230.432948 
L 221.193278 229.728618 
L 221.684956 229.503999 
L 222.284328 229.633746 
L 222.713203 229.647095 
L 223.069859 229.658702 
L 223.812835 229.481309 
L 223.844177 229.019764 
L 223.709268 228.760526 
L 223.751594 228.445853 
L 223.690877 227.978445 
L 223.812031 227.662259 
L 223.948472 227.573386 
L 224.236125 227.751761 
L 224.496697 227.913439 
L 224.841545 227.913197 
L 225.118578 227.790502 
L 225.276551 227.515696 
L 225.322867 227.434708 
L 225.356188 227.327439 
L 225.565917 227.020055 
L 225.81475 226.888748 
L 226.159456 226.706505 
L 226.501079 226.756153 
L 227.167581 227.055279 
L 227.528716 227.47566 
L 227.649339 227.482974 
L 227.857133 227.39892 
L 228.033571 227.326209 
L 228.318437 227.209186 
L 229.558402 227.010575 
L 230.771474 226.786903 
L 231.61303 226.898568 
L 231.96702 227.616739 
L 232.224854 227.761531 
L 232.781045 227.592672 
L 233.045145 227.622598 
L 233.409342 227.56517 
L 233.841705 227.400568 
L 234.10671 227.407793 
L 234.45959 227.371346 
L 234.71351 227.385433 
L 234.948638 227.398327 
L 235.070092 227.408085 
L 235.706343 227.49738 
L 237.188448 227.220138 
L 237.601006 227.065079 
L 237.970319 226.958354 
L 238.626991 226.817852 
L 238.717936 226.893115 
L 238.738277 226.835239 
L 238.759015 226.826235 
L 238.966727 226.734532 
L 239.044618 226.765788 
L 239.115745 226.822324 
L 239.560513 226.591799 
L 239.861422 226.436104 
L 240.156246 226.192934 
L 240.933592 225.40626 
L 240.99585 225.29807 
L 240.940505 225.165225 
L 240.897533 225.061506 
L 240.883498 225.027507 
L 240.831588 224.902261 
L 241.056661 224.561198 
L 241.400253 224.302309 
L 241.674602 224.204897 
L 241.905135 224.152913 
L 241.924931 224.148411 
L 242.006865 224.113781 
L 242.386293 223.953462 
L 242.45299 223.866093 
L 242.618286 223.65035 
L 242.66939 223.583501 
L 242.820309 223.477663 
L 244.076988 222.235473 
L 244.108133 222.204728 
L 244.279756 222.03864 
L 244.398952 221.923049 
L 245.337808 221.190589 
L 245.900719 220.847076 
L 245.955618 220.804368 
L 246.296889 220.539867 
L 246.585749 220.316044 
L 246.957932 220.053835 
L 247.070025 219.975003 
L 247.112573 219.945317 
L 247.175041 219.889824 
L 247.238061 219.86118 
L 247.69515 219.699318 
L 248.106101 219.595697 
L 248.244875 219.56037 
L 248.336452 219.528629 
L 248.39381 219.512869 
L 249.237774 219.31777 
L 249.971224 219.156088 
L 250.57338 219.02341 
L 250.797703 219.000102 
L 250.908132 219.039248 
L 251.028402 219.015913 
L 251.08503 218.972098 
L 251.658906 218.940958 
L 252.482311 218.97329 
L 253.231744 219.03371 
L 253.654212 219.075333 
L 253.890499 219.098618 
L 255.27853 219.226048 
L 255.709674 219.265965 
L 255.756214 219.26594 
L 256.047114 219.266387 
L 256.149953 219.266835 
L 256.295523 219.267065 
L 256.397813 219.268922 
L 256.707051 219.274855 
L 256.973857 219.279824 
L 257.365592 219.287325 
L 257.686181 219.314193 
L 258.098597 219.375195 
L 258.293088 219.403782 
L 258.695738 219.502125 
L 258.78649 219.524469 
L 259.207036 219.613428 
L 260.142167 219.82416 
L 260.752011 219.940491 
L 261.1933 220.015666 
L 261.26288 220.017776 
L 261.637506 220.02849 
L 262.572619 219.99905 
L 263.543647 219.920201 
L 263.930669 219.879349 
L 266.485114 219.523983 
L 266.874216 219.489233 
L 267.022403 219.47548 
L 267.464261 219.43576 
L 268.919529 219.286349 
L 269.19377 219.281186 
L 270.192966 219.273032 
L 270.220639 218.058652 
L 270.135909 216.726463 
L 270.155651 215.889802 
L 270.152875 213.934383 
L 270.15106 212.520217 
L 271.339634 212.915666 
L 271.364178 212.91644 
L 271.507119 212.921582 
L 271.528729 212.928433 
L 271.579422 212.945389 
L 273.29868 213.51235 
L 274.893286 214.038004 
L 274.993441 214.034978 
L 275.614906 214.016673 
L 276.047287 214.277034 
L 276.160274 214.43032 
L 276.245777 214.504374 
L 276.638327 214.844122 
L 276.976021 215.136048 
L 277.60851 215.032106 
L 277.678095 214.799065 
L 278.004486 213.705557 
L 277.937603 212.390079 
L 277.6802 211.856316 
L 277.439479 210.899783 
L 277.30847 209.554448 
L 277.530697 208.623006 
L 278.439294 207.345162 
L 279.12926 207.148855 
L 280.30035 207.447226 
L 281.125606 207.561974 
L 281.209278 207.573436 
L 282.463791 206.558284 
L 282.828595 206.283826 
L 283.598942 205.71305 
L 283.648533 204.854449 
L 283.268354 203.467628 
L 282.75743 202.976926 
L 282.805424 200.721411 
L 283.100443 200.369149 
L 283.612152 199.876864 
L 284.097041 199.705776 
L 284.871244 199.994666 
L 285.48513 199.013826 
L 285.873861 198.010933 
L 285.920656 197.832287 
L 286.105928 197.122395 
L 286.166096 196.891989 
L 286.350688 196.186134 
L 286.373872 196.096322 
L 286.499193 195.617326 
L 286.733686 194.836197 
L 287.032539 193.840921 
L 287.127885 193.543109 
L 287.410065 192.655222 
L 287.412706 192.645539 
L 287.536755 192.196413 
L 287.705241 191.586961 
L 287.96971 190.573405 
L 288.218064 189.618652 
L 288.512326 188.64374 
L 288.602666 188.289636 
L 288.75667 187.87126 
L 288.892038 187.55179 
L 289.068934 187.640827 
L 289.445879 187.110296 
L 289.500238 187.064706 
L 289.517459 186.988957 
L 289.767652 186.664828 
L 289.530784 185.727388 
L 289.458877 185.409282 
L 289.452921 184.048064 
L 289.565648 183.089725 
L 289.940477 181.944126 
L 290.184014 181.272425 
L 290.369739 180.761083 
L 290.597719 179.846242 
L 290.797225 179.045368 
L 290.823721 178.914058 
L 291.021816 177.972064 
L 291.137044 177.077553 
L 291.135065 176.126513 
L 291.150708 175.692435 
L 291.316121 175.238007 
L 291.959778 175.387826 
L 292.592377 175.534448 
L 293.169264 175.66864 
L 294.193059 175.906189 
L 294.59393 175.882181 
L 294.635889 175.892712 
L 297.460458 176.566666 
L 299.635295 177.57999 
L 301.809858 178.593336 
L 303.216973 179.248617 
L 303.397447 179.333068 
L 304.546846 179.615937 
L 305.651234 179.877829 
L 306.208483 180.017299 
L 306.774997 180.152937 
L 307.035048 180.217051 
L 308.024302 180.46132 
L 308.363862 180.543887 
L 309.341472 180.763621 
L 309.951268 180.921132 
L 310.356739 181.021935 
L 310.81996 181.1372 
L 311.120521 181.212024 
L 311.514445 181.309844 
L 312.706878 181.595476 
L 313.783142 181.869883 
L 313.920339 181.894652 
L 314.998745 182.155051 
L 316.109712 182.422879 
L 316.815465 182.599004 
L 317.996016 182.892456 
L 319.022908 183.137548 
L 319.452351 183.240811 
L 319.882483 183.344589 
L 321.40048 183.710026 
L 321.678751 183.777024 
L 321.73181 183.789811 
L 322.081242 183.875077 
L 323.605349 184.246842 
L 325.760882 184.777085 
L 325.910467 184.792926 
L 325.929793 184.671791 
L 326.493794 182.345138 
L 327.058054 180.0185 
L 327.620242 177.70014 
L 327.658035 177.554092 
L 328.540554 173.907834 
L 328.577329 173.758381 
L 329.22878 171.110561 
L 329.264373 170.965598 
L 329.303523 170.849075 
L 329.319315 170.801755 
L 329.347528 170.716998 
L 329.359034 170.669457 
L 330.840556 164.652399 
L 331.22966 162.956626 
L 332.416548 157.786747 
L 332.343774 155.51544 
L 332.270525 153.21609 
L 332.17572 150.969272 
L 332.146094 150.293633 
L 332.086641 148.932286 
L 332.068601 148.519945 
L 332.027138 147.432044 
L 331.954069 145.749105 
L 331.882402 144.076056 
L 331.80473 141.634473 
L 333.656795 141.594351 
L 334.885108 141.726616 
L 336.008292 141.8506 
L 336.260473 141.878447 
L 336.404604 141.894497 
L 336.595282 141.915582 
L 336.69027 141.925987 
L 337.937141 142.143292 
L 339.057711 142.341405 
L 340.19028 142.650064 
L 341.147483 142.904427 
L 342.395753 143.336176 
L 343.690426 143.775601 
L 343.626197 142.998313 
L 343.583742 142.480778 
L 343.557299 142.302683 
L 343.38926 141.184299 
L 343.368051 141.043832 
L 343.329162 140.447456 
L 343.104374 138.545465 
L 343.058707 137.899647 
L 343.039675 137.628302 
L 342.989251 136.912313 
L 342.966728 136.592653 
L 342.152646 136.689783 
L 341.316721 136.812372 
L 340.185497 136.946796 
L 339.211994 137.051288 
L 339.106614 137.001311 
L 338.549899 136.736724 
L 338.13052 136.536932 
L 337.689061 136.166936 
L 337.134924 135.749465 
L 336.897444 135.625629 
L 336.229824 135.479141 
L 335.571268 135.477285 
L 335.526929 135.475718 
L 334.453559 135.436445 
L 334.33413 135.432206 
L 333.893446 135.265815 
L 333.361353 135.21014 
L 333.018092 135.174494 
L 332.965299 135.179437 
L 332.174613 135.25341 
L 332.033939 135.281605 
L 331.727741 135.342942 
L 331.672468 135.359013 
L 331.468641 135.417242 
L 330.88618 135.589594 
L 330.838902 135.603443 
L 330.76858 135.624248 
L 330.407737 135.801312 
L 329.381789 136.30501 
L 328.387732 136.862324 
L 327.350943 137.452169 
L 326.999091 137.313842 
L 325.800733 136.842666 
L 325.369822 136.601853 
L 325.156919 136.482895 
L 323.988617 135.830088 
L 323.117152 135.223932 
L 322.275645 134.414815 
L 321.668658 133.768872 
L 320.962566 132.968644 
L 319.485869 130.929287 
L 317.849375 128.693269 
L 316.529815 126.904608 
L 316.39718 126.747404 
L 314.83311 124.606387 
L 313.149113 122.240593 
L 312.101831 120.823496 
L 311.549572 120.039126 
L 310.111782 118.20974 
L 309.450388 116.975558 
L 309.206677 116.64048 
L 309.097992 116.490979 
L 308.206193 115.264134 
L 307.292053 114.006695 
L 306.319216 112.668183 
L 306.129947 112.805746 
L 305.52172 113.261623 
L 303.442318 114.8097 
L 301.886414 115.877693 
L 300.925181 116.554004 
L 301.238622 116.931914 
L 301.039432 117.067539 
L 300.478257 117.271295 
L 299.834693 117.418626 
L 299.138445 117.479684 
L 298.732434 117.516587 
L 298.133006 117.557229 
L 297.88596 117.432257 
L 297.443149 117.061855 
L 296.881602 116.893471 
L 296.557689 116.678593 
L 295.924423 115.991198 
L 295.419637 115.290033 
L 294.53231 114.446188 
L 293.993965 114.154959 
L 293.296421 113.842649 
L 292.637927 113.682729 
L 292.309934 113.514829 
L 291.344472 113.102364 
L 290.267298 113.012022 
L 289.862441 113.049492 
L 289.650627 113.118873 
L 289.305852 113.149122 
L 289.000394 113.289146 
L 288.435152 113.624455 
L 287.644523 113.981521 
L 287.224858 114.094153 
L 286.850533 114.123136 
L 286.774276 114.129053 
L 286.453593 114.239807 
L 286.067133 114.230335 
L 285.523094 114.083491 
L 285.218637 114.063129 
L 284.967966 113.933927 
L 284.575295 113.82117 
L 284.144696 113.885838 
L 283.721892 113.839552 
L 283.444102 113.966396 
L 282.17253 114.021119 
L 281.85007 113.979012 
L 281.818042 113.97474 
L 281.125904 113.997073 
L 280.649268 113.900871 
L 280.188097 113.923279 
L 279.663208 114.019782 
L 279.27724 114.066392 
L 279.074057 114.07421 
L 278.901262 114.080946 
L 278.806987 114.107739 
L 278.265141 114.260615 
L 278.181955 114.276001 
L 277.327163 114.429895 
L 277.079584 114.474721 
L 276.796345 114.525628 
L 276.506501 114.58434 
L 276.154867 114.655702 
L 275.819641 114.723832 
L 275.687628 114.750616 
L 275.153001 114.897887 
L 273.589509 115.428702 
L 273.306602 115.524893 
L 272.582125 115.789162 
L 272.123593 115.773898 
L 272.004129 115.769955 
L 271.685985 115.868662 
L 271.315719 115.935495 
L 271.001265 115.919207 
L 270.984113 115.918331 
L 270.821784 115.987156 
L 270.750408 116.489753 
L 270.670942 116.530718 
L 269.610016 117.080524 
L 268.266049 117.776583 
L 268.182821 117.8164 
L 266.908906 118.421935 
L 266.297255 118.736774 
L 265.274324 119.263409 
L 265.144502 119.327193 
L 265.01835 119.389249 
L 264.955406 119.420044 
L 263.937867 119.920623 
L 263.911162 119.933869 
L 263.658134 120.058186 
L 263.378652 120.195523 
L 263.194456 120.285992 
L 262.985521 120.388611 
L 262.908349 120.426824 
L 262.745985 120.477698 
L 262.500134 120.554728 
L 262.171022 120.658168 
L 262.021777 120.704682 
L 261.87445 120.751054 
L 261.520592 120.862095 
L 261.432001 120.880569 
L 260.553149 121.062802 
L 260.475186 121.078945 
L 260.195666 121.137023 
L 259.406336 121.197625 
L 259.26519 121.202169 
L 258.715464 121.219424 
L 258.29466 121.232952 
L 258.136362 121.222495 
L 257.631463 121.189355 
L 257.507671 121.181374 
L 257.364369 121.171921 
L 257.347229 121.170808 
L 256.925682 121.10001 
L 256.153165 120.970152 
L 256.058193 120.9543 
L 255.86619 120.906688 
L 255.69754 120.864815 
L 255.636683 120.849743 
L 255.470064 120.800789 
L 255.326512 120.758518 
L 255.131494 120.694948 
L 254.932249 120.629966 
L 254.91865 120.624963 
L 254.732139 120.558474 
L 254.6849 120.538588 
L 254.449861 120.439935 
L 254.28265 120.36964 
L 254.076142 120.282977 
L 253.853022 120.189482 
L 253.831815 120.179063 
L 253.625971 120.079263 
L 253.452766 119.995254 
L 253.25696 119.900037 
L 253.239242 119.891472 
L 253.052687 119.802234 
L 252.991125 119.772759 
L 252.805366 119.653629 
L 252.557147 119.494441 
L 252.281175 119.317318 
L 252.112322 119.208628 
L 251.953825 119.093519 
L 251.656415 118.877471 
L 251.541932 118.794058 
L 251.397023 118.69832 
L 251.05727 118.474132 
L 250.991894 118.350113 
L 250.210641 116.868044 
L 250.120413 116.697023 
L 250.094493 116.647571 
L 249.989111 116.591921 
L 249.894178 116.518604 
L 249.598743 116.211423 
L 249.295438 115.880375 
L 249.105341 115.620221 
L 249.03207 115.519988 
L 248.172576 114.927412 
L 247.988612 114.498746 
L 247.952709 114.415261 
L 247.48494 113.326555 
L 247.36363 112.716924 
L 247.254309 112.16777 
L 247.234804 111.972569 
L 247.149678 111.119802 
L 247.374311 108.615362 
L 247.320985 108.153828 
L 247.252598 107.565088 
L 247.238344 107.440798 
L 247.165646 106.814482 
L 247.12777 106.486638 
L 247.094228 106.195894 
L 247.057595 106.046518 
L 247.012788 105.865117 
L 246.8981 105.398308 
L 246.821269 105.085008 
L 246.75704 104.824792 
L 246.650499 104.390486 
L 246.638688 104.331216 
L 246.606069 104.163845 
L 246.536011 103.806348 
L 246.461289 103.42299 
L 246.425128 103.344522 
L 246.19673 102.849422 
L 246.026867 102.481583 
L 245.924199 102.258686 
L 245.786618 101.960977 
L 245.735599 101.850383 
L 245.501203 101.355698 
L 245.294839 101.402441 
L 245.055592 100.942234 
L 244.776185 100.373901 
L 245.118984 100.246207 
L 244.933502 99.969771 
L 244.850206 99.87861 
L 244.695625 99.709111 
L 244.67253 99.683991 
L 243.916509 98.856756 
L 243.795413 98.724162 
L 243.535241 98.479135 
L 243.395237 98.347257 
L 243.216693 98.179177 
L 243.03885 98.011372 
L 242.112863 97.138873 
L 241.915965 97.045534 
L 241.308308 96.756038 
L 241.068281 96.641591 
L 240.858804 96.541868 
L 240.259766 96.256645 
L 240.114448 96.187242 
L 240.060849 96.18428 
L 239.84956 96.172351 
L 239.397414 96.147472 
L 239.294992 96.141553 
L 238.689066 96.105993 
L 238.639731 96.103727 
L 237.774806 96.06436 
L 237.302664 96.042783 
L 237.028419 96.090164 
L 236.167615 96.23876 
L 236.178655 95.982371 
L 236.195049 95.6058 
L 236.204843 95.378802 
L 239.139703 94.619745 
L 241.608683 93.989867 
L 242.080617 93.869205 
L 244.817909 93.05498 
L 245.085192 92.975412 
L 245.389879 92.888407 
L 245.862308 92.753415 
L 246.380558 92.605188 
L 246.614473 92.538295 
L 247.30385 92.341301 
L 248.068127 92.122975 
L 248.590479 91.959879 
L 249.048895 92.517209 
L 249.256256 92.399161 
L 248.869901 91.791615 
L 249.999947 91.506891 
L 251.200891 91.204472 
L 251.433723 91.126039 
L 251.999032 90.935688 
L 252.201738 90.867217 
L 252.39858 90.801322 
L 252.40467 90.798998 
L 252.655669 90.710954 
L 252.937548 90.612269 
L 253.331078 90.497715 
L 253.507834 90.446365 
L 253.615971 90.41499 
L 253.647015 90.405794 
L 253.695417 90.384071 
L 253.873161 90.303796 
L 254.044803 90.226084 
L 254.229639 90.142578 
L 254.243083 90.136557 
L 254.654182 89.939327 
L 255.112054 89.719574 
L 255.541761 89.513476 
L 255.813197 89.352243 
L 256.057037 89.207566 
L 256.203346 89.120665 
L 256.322561 89.049865 
L 256.603343 88.883363 
L 256.775508 88.781255 
L 256.887583 88.714642 
L 256.970835 88.665241 
L 257.000398 88.647588 
L 257.639096 88.159747 
L 257.927634 87.939283 
L 258.165042 87.709511 
L 258.525331 87.360276 
L 258.878261 86.991271 
L 259.110883 86.747606 
L 259.330089 86.518824 
L 259.574566 86.262833 
L 259.78231 85.991561 
L 260.004643 85.701156 
L 260.12515 85.543738 
L 260.310126 85.302199 
L 260.345958 85.255172 
L 260.717693 85.674505 
L 260.770988 85.631721 
L 261.055935 85.40222 
L 261.102017 85.365056 
L 260.65349 84.829978 
L 260.91079 84.448443 
L 261.076149 84.202791 
L 261.254929 83.937469 
L 261.320398 83.800716 
L 261.577236 83.263503 
L 261.700317 82.895245 
L 261.82199 82.531226 
L 261.284117 81.722669 
L 261.235823 81.652678 
L 260.719899 80.905828 
L 260.579894 80.703288 
L 260.392798 80.760328 
L 257.785843 78.025226 
L 257.584557 77.914398 
L 257.395577 77.881307 
L 257.158762 77.839793 
L 256.490479 77.722429 
L 255.972086 77.631618 
L 255.228554 77.315981 
L 254.9563 77.044932 
L 254.535181 77.094857 
L 254.222798 77.016934 
L 254.08751 76.904922 
L 253.983397 76.818921 
L 253.692861 76.578555 
L 253.651373 76.543875 
L 253.559107 76.469255 
L 253.416671 76.399265 
L 252.851883 76.120517 
L 252.303387 75.850264 
L 251.955358 75.678816 
L 251.739511 75.572286 
L 251.648634 75.517373 
L 251.24482 75.272686 
L 250.892221 75.059341 
L 250.847723 75.032172 
L 250.315548 74.802749 
L 249.952418 74.4859 
L 249.916404 74.522383 
L 249.669138 74.229388 
L 249.633064 74.186844 
L 249.348353 73.850038 
L 249.214914 73.691907 
L 249.041161 73.584409 
L 248.740011 73.397634 
L 248.436514 73.210021 
L 248.212032 73.070969 
L 247.995673 72.936641 
L 247.786483 72.806988 
L 247.661622 72.729516 
L 247.342954 72.473366 
L 246.868416 72.091473 
L 246.779988 72.05417 
L 246.448805 71.913048 
L 246.16719 71.793366 
L 246.093272 71.762069 
L 245.855043 71.592389 
L 245.592851 71.405207 
L 245.113603 71.06427 
L 244.969249 70.961145 
L 244.823049 70.790636 
L 244.616636 70.549298 
L 244.4172 70.316456 
L 244.202201 70.065343 
L 243.960792 69.783672 
L 243.901913 69.714826 
L 243.759759 69.497349 
L 243.480114 69.069337 
L 243.284315 69.014847 
L 243.180649 68.985872 
L 243.131169 68.972103 
L 243.022512 68.975682 
L 242.809724 68.98307 
L 242.726688 68.985556 
L 242.527557 68.992201 
L 242.450002 68.994966 
L 242.302328 68.999916 
L 241.885266 68.921973 
L 241.768671 68.874622 
L 241.710629 68.850601 
L 241.664263 68.831961 
L 241.190185 68.638814 
L 241.085436 68.588713 
L 240.501294 68.308798 
L 240.481459 68.299409 
L 240.015609 68.19864 
L 239.814192 68.023657 
L 239.70548 67.929053 
L 239.251945 67.764256 
L 239.20292 67.746201 
L 239.177187 67.735316 
L 238.617927 67.497143 
L 238.503642 67.465478 
L 238.166234 67.371477 
L 237.91436 67.301217 
L 237.854676 67.290763 
L 237.818942 67.28392 
L 237.68306 67.258822 
L 237.42974 67.212436 
L 237.385248 67.203951 
L 237.083635 67.148648 
L 237.004577 67.133859 
L 236.889987 67.112955 
L 236.723089 67.082213 
L 236.66462 67.071342 
L 236.597143 67.059057 
L 236.409696 67.089773 
L 236.153089 67.132065 
L 236.045223 67.124675 
L 235.904505 67.114898 
L 235.752159 67.042031 
L 235.64226 66.989757 
L 235.467833 66.710784 
L 235.458988 66.696685 
L 235.412146 66.635399 
L 235.390416 66.606757 
L 235.002604 66.536069 
L 234.93135 66.522874 
L 234.925141 66.522799 
L 234.469064 66.535815 
L 234.381021 66.538052 
L 234.026418 66.547838 
L 233.884045 66.551869 
L 233.828239 66.549756 
L 233.189955 66.522879 
L 231.524666 66.454209 
L 229.189952 66.170819 
L 228.278666 66.132281 
L 227.756969 66.110385 
L 227.274144 66.089982 
L 226.863081 66.072739 
L 226.502591 66.057102 
L 226.101537 66.040369 
L 224.850669 66.339059 
L 224.740255 66.410573 
L 224.067833 66.847299 
L 223.233066 67.163016 
L 222.517039 67.218463 
L 222.309785 67.234547 
L 221.618639 67.246718 
L 221.496908 67.248935 
L 220.614115 67.332586 
L 219.825368 67.328091 
L 219.285979 67.325449 
L 218.829268 67.322683 
L 218.626933 67.32178 
L 218.423895 67.320602 
L 217.826233 67.317411 
L 217.795821 67.318745 
L 216.725283 67.372806 
L 216.361891 67.34843 
L 215.945889 67.320196 
L 215.881405 67.30065 
L 215.611647 67.21995 
L 215.264314 66.981108 
L 214.796465 66.317102 
L 214.626272 66.256767 
L 214.551148 66.230217 
L 214.513831 66.216835 
L 213.776341 66.086377 
L 213.723396 66.644292 
L 213.61646 67.780905 
L 213.607657 67.87505 
L 213.457951 68.171841 
L 213.276662 68.531213 
L 213.254083 68.576288 
L 213.14781 68.755542 
L 213.088502 68.856232 
L 213.017471 68.976205 
L 212.797999 69.344183 
L 212.497022 69.78395 
L 212.123476 70.379055 
L 211.619835 70.881613 
L 211.400697 71.105451 
L 210.893423 71.699305 
L 210.45921 72.189813 
L 209.809322 72.911521 
L 209.268292 73.502238 
L 208.732859 74.114793 
L 208.087069 74.883652 
L 207.395851 75.653333 
L 207.009614 76.031332 
L 206.761308 76.260647 
L 206.591058 76.363158 
L 206.285197 76.482764 
L 206.286822 76.588212 
L 205.972196 76.578063 
L 205.240334 76.503015 
L 204.50333 76.378141 
L 203.782273 76.273474 
L 203.339843 76.21066 
L 202.764181 76.079576 
L 202.110605 75.996526 
L 201.965237 75.974818 
L 201.669306 75.930182 
L 201.232272 75.864535 
L 200.001443 75.715236 
L 199.961371 75.709143 
L 198.953907 75.555564 
L 198.584685 75.490713 
L 197.888861 75.368674 
L 196.991383 75.303756 
L 196.230579 75.138696 
L 195.202968 75.019811 
L 194.710985 74.944469 
L 194.126251 74.851043 
L 193.850536 74.808163 
L 193.357181 74.731561 
L 192.775299 74.657441 
L 192.273883 74.593847 
L 191.717337 74.509994 
L 191.223086 74.432157 
L 190.44794 74.32891 
L 189.970241 74.244968 
L 189.929751 74.237659 
L 189.826252 74.219512 
L 189.781485 74.211748 
L 189.558876 74.172273 
L 189.253834 74.118586 
L 189.184199 74.106456 
L 188.699772 74.042295 
L 188.221779 73.97846 
L 187.639987 73.897664 
L 186.995064 73.808421 
L 186.902107 73.799189 
L 186.169653 73.725896 
L 186.130784 73.719628 
L 185.173976 73.565357 
L 185.203014 74.353947 
L 185.199835 75.175159 
L 185.255367 75.358993 
L 185.185475 76.743663 
L 185.763329 77.426989 
L 185.933857 77.628349 
L 185.752969 77.495434 
L 185.301541 77.168815 
L 184.74088 76.924103 
L 183.894865 76.619048 
L 182.986305 76.441599 
L 182.292956 76.007744 
L 182.094488 75.920406 
L 181.907558 75.874598 
L 177.924566 76.169158 
L 177.232654 75.983012 
L 174.50728 75.367268 
L 172.445014 74.615365 
L 171.467512 74.244157 
L 171.093141 74.119501 
L 170.463747 73.91546 
L 168.45207 73.326367 
L 168.254981 73.254207 
L 167.79137 73.380349 
L 166.926579 73.191563 
L 166.809351 73.137304 
L 166.976443 72.796313 
L 166.836363 72.697323 
L 166.734096 72.692667 
L 166.383123 73.02227 
L 166.150397 73.122894 
L 166.113709 73.092077 
L 166.002407 72.99573 
L 165.655231 72.757032 
L 165.295406 72.565833 
L 164.773561 72.403858 
L 164.417884 72.31129 
L 164.303095 72.279905 
L 164.206026 72.242944 
L 163.816331 72.09479 
L 163.351289 71.914839 
L 163.237918 71.869397 
L 163.168602 71.841254 
L 162.803812 71.672801 
L 162.72066 71.634624 
L 162.722753 71.53535 
L 162.722059 70.731427 
L 162.714433 70.381902 
L 162.713045 70.290117 
L 162.711433 70.174134 
L 162.705766 69.761488 
L 162.856785 69.627303 
L 163.202263 69.321601 
L 163.191948 68.461638 
L 163.092833 68.326873 
L 162.703534 67.797513 
L 162.269249 67.207226 
L 161.693112 66.423998 
L 161.651209 66.267919 
L 161.411719 65.374906 
L 161.357306 65.172701 
L 160.943507 64.736466 
L 160.463866 64.231077 
L 160.013715 63.757102 
L 159.556975 63.429351 
L 159.538766 63.415986 
L 159.221108 63.159629 
L 159.150143 63.10219 
L 158.803913 62.671507 
L 158.789671 62.683963 
L 158.586164 62.51978 
L 158.467777 62.48846 
L 158.352454 62.438854 
L 158.21605 62.356821 
L 157.896883 62.16888 
L 157.686545 61.99789 
L 157.481784 61.825265 
L 157.407277 61.766931 
L 157.054026 61.491074 
L 156.720101 61.316285 
L 156.451422 61.193858 
L 156.257524 61.153006 
L 156.059335 61.155044 
L 155.970713 61.283745 
L 155.486848 61.230993 
L 154.583556 61.165363 
L 153.753913 61.098642 
L 153.512307 61.075279 
L 152.982951 60.923753 
L 152.172456 60.727013 
L 152.020696 60.674869 
L 151.034746 60.460247 
L 149.808268 60.19575 
L 149.772918 60.128366 
L 149.996229 60.010717 
L 151.246066 59.40449 
L 151.300902 58.75541 
L 151.309004 58.66003 
L 151.38921 57.717917 
L 151.421372 57.346201 
L 152.06979 52.361872 
L 151.28472 51.108212 
L 151.240764 51.045665 
L 149.012475 50.689571 
L 148.281885 50.551935 
L 146.1507 50.150705 
L 144.246181 50.092033 
L 142.414948 49.751852 
L 141.83267 49.025642 
L 141.761126 48.936334 
L 141.205162 48.12787 
L 139.594209 47.999179 
L 138.401591 47.632559 
L 136.817392 47.446332 
L 135.243494 47.067391 
L 133.969431 47.573665 
L 132.54439 47.247932 
L 130.988141 46.874235 
L 129.990261 47.42547 
L 128.620348 47.567335 
L 127.420958 46.961253 
L 126.258397 45.945619 
L 125.804439 45.400217 
L 125.638933 45.128788 
L 125.267743 44.778849 
L 124.9613 44.443636 
L 124.854795 44.855711 
L 124.710723 44.7252 
L 124.687278 44.836339 
L 124.655018 44.966196 
L 124.343846 46.063469 
L 123.895266 47.63713 
L 123.969185 47.996422 
L 124.141063 48.567739 
L 124.193363 48.83783 
L 124.180591 49.017989 
L 123.91677 49.720352 
L 123.517037 50.806504 
L 123.188797 51.944835 
L 123.088613 52.523415 
L 123.075714 52.970811 
L 122.945006 53.134313 
L 122.692173 53.408823 
L 121.956642 54.207879 
L 121.806367 54.370885 
L 121.755597 54.426064 
L 121.439426 54.956041 
L 121.486032 54.975127 
L 121.640603 55.03839 
L 124.47869 56.395456 
L 124.581915 56.458077 
L 126.125364 57.222106 
L 127.295654 57.801341 
L 127.380316 57.843162 
L 127.493446 57.869881 
L 127.541976 57.806929 
L 127.809459 57.36266 
L 127.975815 57.443521 
L 128.008426 57.397974 
L 129.341434 58.501158 
L 129.542031 58.667065 
L 129.975574 59.025876 
L 130.318001 59.309258 
L 130.86196 60.027995 
L 131.009764 60.231977 
L 131.2564 60.57236 
L 131.408019 60.651532 
L 131.580757 60.810543 
L 131.764655 60.855646 
L 131.942461 61.109739 
L 132.073208 61.099266 
L 132.19903 61.216662 
L 132.365267 61.41989 
L 132.595843 61.381598 
L 132.629667 61.388555 
L 132.748168 61.412913 
L 132.766973 61.558489 
L 132.831559 61.65798 
L 132.784685 61.87499 
L 132.863596 61.979507 
L 132.832885 62.130991 
L 132.860989 62.296189 
L 132.958126 62.351329 
L 133.009502 62.42334 
L 133.087686 62.455982 
L 133.091431 62.548842 
L 133.169042 62.727528 
L 133.234504 62.953501 
L 133.213237 63.06403 
L 133.24584 63.124328 
L 133.344652 63.150576 
L 133.442217 63.278774 
L 133.443699 63.388284 
L 133.554778 63.441726 
L 133.622701 63.550963 
L 133.712542 63.603823 
L 133.757163 63.696331 
L 133.790892 63.945384 
L 133.831095 63.987383 
L 133.980077 64.004165 
L 134.013712 64.106181 
L 134.008195 64.193071 
L 134.068851 64.328286 
L 134.165574 64.420524 
L 134.093351 64.551495 
L 134.123667 64.700999 
L 134.11391 64.882745 
L 134.048338 65.019317 
L 134.150212 65.214542 
L 134.132019 65.325703 
L 134.050884 65.390855 
L 134.040817 65.487576 
L 134.19318 65.575648 
L 134.349093 65.731667 
L 134.431835 65.898398 
L 134.431522 66.043977 
L 134.510173 66.187276 
L 134.558583 66.443767 
L 134.666576 66.607211 
L 134.817373 66.673893 
L 134.819212 66.776237 
L 134.757189 66.903886 
L 134.863474 67.207331 
L 134.870305 67.387032 
L 134.954146 67.498023 
L 135.028019 67.823796 
L 134.973308 67.991801 
L 135.037695 68.071168 
L 134.932699 68.438291 
L 134.956367 68.774247 
L 134.991585 68.878019 
L 134.965094 68.96386 
L 135.022222 69.035442 
L 135.021279 69.188892 
L 135.009814 69.428982 
L 135.069879 69.624035 
L 134.892171 69.848634 
L 135.027701 69.929162 
L 135.559177 70.244275 
L 135.478105 71.499335 
L 135.483268 71.606873 
L 135.54288 72.829211 
L 135.551425 73.003251 
L 135.522578 73.703205 
L 135.513267 73.928795 
L 135.481229 74.553636 
L 135.43275 75.038287 
L 135.453279 75.2692 
L 135.526372 75.677789 
L 135.493819 77.705874 
L 135.435304 79.492238 
L 135.349871 80.758335 
L 135.331338 80.90037 
L 135.119067 82.511904 
L 135.07239 82.811538 
L 135.623088 83.925513 
L 136.09332 84.24595 
L 136.591732 84.580969 
L 137.457117 85.122074 
L 137.727788 85.223009 
L 138.221266 85.416982 
L 137.391661 87.018724 
L 137.37502 87.050699 
L 137.366538 87.067517 
L 136.767109 88.239912 
L 135.871543 89.996654 
L 135.142086 91.454468 
L 134.617411 92.58966 
L 134.579065 92.644977 
L 133.583696 94.63741 
L 132.81018 96.208937 
L 132.768172 96.294723 
L 132.333628 97.184185 
L 132.132335 97.59583 
L 131.586637 98.736928 
L 131.029395 99.822136 
L 130.628342 100.65341 
L 130.180347 101.573816 
L 130.018082 101.584871 
L 129.986647 101.741588 
L 129.488319 102.631946 
L 129.148609 103.301055 
L 128.835512 104.112539 
L 128.758659 104.361338 
L 128.597358 104.882027 
L 128.438602 105.255331 
L 128.362023 105.436136 
L 128.318464 105.538848 
L 128.193843 105.802026 
L 127.851675 106.5498 
L 127.841685 106.573009 
L 127.179258 107.954709 
L 127.122862 108.070669 
L 126.762131 108.802912 
L 126.465361 109.406403 
L 126.378692 109.617357 
L 125.93611 110.540682 
L 125.617193 111.210359 
L 125.494833 111.466708 
L 124.928098 112.653959 
L 124.582437 112.924312 
L 124.267791 113.662213 
L 123.87345 114.586275 
L 123.698016 114.997787 
L 123.556431 115.328849 
L 123.142087 116.300049 
L 123.022935 116.578591 
L 122.874544 116.926557 
L 122.832776 117.012597 
L 122.489388 117.723685 
L 122.171041 118.382623 
L 122.00857 118.715999 
L 121.572145 119.612825 
L 121.486052 119.783581 
L 121.236834 120.276905 
L 120.988917 120.76814 
L 120.823104 121.0968 
L 120.674247 121.396613 
L 120.387392 121.974748 
L 120.212047 122.32712 
L 120.144162 122.463105 
L 119.956115 122.840467 
L 119.821096 123.111755 
L 119.793439 123.163777 
L 119.498761 123.721649 
L 119.228084 124.262758 
L 119.346884 124.400387 
L 119.408309 124.471697 
L 119.649519 124.751205 
L 119.806937 124.933623 
L 119.856292 124.993076 
L 120.178065 125.381728 
L 120.285651 125.509459 
L 120.601664 125.884174 
L 120.723239 126.028408 
L 120.937741 126.282879 
L 121.339494 126.758616 
L 122.124795 127.686915 
L 122.869254 128.571755 
L 123.175125 128.938787 
L 123.395112 129.202876 
L 123.57254 129.424612 
L 123.756248 129.659353 
L 124.538935 130.658898 
L 125.086808 131.370627 
L 125.411276 131.651428 
L 125.876322 132.054187 
L 125.95762 132.124337 
L 126.595033 132.763912 
L 126.657594 132.831451 
L 126.817825 133.004919 
L 126.934545 133.131196 
L 127.056008 133.262978 
L 127.12151 133.333777 
L 127.384244 133.60719 
L 127.566352 133.772891 
L 127.628277 133.829143 
L 127.878254 134.056423 
L 128.13738 134.291822 
L 128.234485 134.380243 
L 128.469593 134.599118 
L 128.489226 134.61734 
L 128.681804 134.798173 
L 128.884447 134.987889 
L 128.997611 135.094354 
L 129.329606 135.405953 
L 129.459209 135.527607 
L 129.505014 135.567011 
L 129.566842 135.620386 
L 129.602783 135.651635 
L 129.933949 135.936613 
L 130.267481 136.212371 
L 130.152611 136.794284 
L 130.137479 136.887399 
L 130.101982 137.106894 
L 130.052626 137.413101 
L 129.983631 137.840695 
L 129.974581 137.854611 
L 129.854353 138.664708 
L 129.87346 138.674283 
L 129.866196 139.094662 
L 129.94804 139.716332 
L 129.951959 140.190431 
L 129.952947 140.305185 
L 129.954203 140.448209 
L 129.93874 140.783647 
L 129.901487 140.855782 
L 129.8124 140.923413 
L 129.352374 141.088902 
L 129.14079 141.209326 
L 129.137143 141.201002 
L 128.928276 141.329225 
L 128.570688 141.581489 
L 128.531331 141.609458 
L 128.49021 141.634465 
L 128.191088 141.815415 
L 127.687749 141.97324 
L 127.38883 142.044288 
L 127.160232 142.074544 
L 126.739842 142.14408 
L 126.529085 142.22384 
L 125.889004 142.716805 
L 125.841824 142.753245 
L 125.653184 143.075491 
L 125.383587 143.373823 
L 125.278676 143.495745 
L 124.796301 143.818422 
L 124.422193 144.249953 
L 124.210552 144.390975 
L 124.281089 144.514228 
L 123.506619 144.751455 
L 123.144729 144.917552 
L 122.476669 145.118188 
L 121.464271 145.410372 
L 120.503323 145.724526 
L 119.700385 145.943834 
L 118.952274 146.136186 
L 117.666759 146.374555 
L 117.349577 146.414543 
L 116.765191 146.473782 
L 115.859625 146.735654 
L 115.493465 146.795476 
L 114.527409 147.261481 
L 114.575959 147.390098 
L 113.815839 147.849365 
L 113.388597 148.159026 
L 112.696524 148.647552 
L 112.273839 148.894225 
L 112.010164 149.078654 
L 111.896495 149.170456 
L 111.8995 149.389477 
L 111.905943 149.871843 
L 111.925797 151.42888 
L 111.90389 152.37775 
L 111.881703 153.341932 
L 111.844396 154.934677 
L 111.822761 155.873263 
L 111.812071 156.33035 
L 111.794043 156.680031 
L 111.763063 157.281702 
L 111.71436 158.284794 
L 111.673115 159.600282 
L 111.613309 160.721596 
L 111.893601 160.963046 
L 112.561332 160.641649 
L 112.706929 160.579934 
L 112.979357 160.46419 
L 113.215308 160.414878 
L 114.232683 160.352048 
L 114.257013 160.174139 
L 114.387064 159.221078 
L 114.42268 158.959918 
L 114.624563 157.482174 
L 116.137596 157.005829 
L 116.252088 156.969627 
L 117.608511 156.546081 
L 117.986119 156.428166 
L 118.871549 156.152136 
L 119.287002 156.022223 
L 120.262485 155.716688 
L 120.536081 155.630713 
L 121.053684 155.468063 
L 121.28702 155.394689 
L 121.636293 155.284951 
L 121.670958 155.274467 
L 122.651274 154.967994 
L 122.746598 154.938026 
L 122.742777 155.62654 
L 122.729159 155.694108 
L 123.816918 155.811351 
L 124.926778 155.930663 
L 125.860889 156.026128 
L 126.025761 156.042976 
L 127.05899 156.147467 
L 127.131386 156.15132 
L 127.669282 156.181284 
L 127.803045 156.189877 
L 127.900413 156.195696 
L 127.974392 156.201304 
L 128.208679 156.214677 
L 128.193578 158.423957 
L 128.193886 159.225945 
L 128.195121 161.41401 
L 128.194825 161.472904 
L 130.386872 161.680061 
L 130.394368 161.822439 
L 130.395934 161.853408 
L 130.42019 162.836432 
L 130.440025 163.629577 
L 130.552112 163.954384 
L 130.597652 164.085491 
L 130.74963 164.525318 
L 131.284803 165.773087 
L 131.249119 165.977246 
L 130.609811 167.933126 
L 130.241915 169.058205 
L 130.130279 169.397701 
L 131.08336 169.705362 
L 131.81531 169.941877 
L 132.224039 170.129443 
L 132.652087 170.09144 
L 133.006978 170.204478 
L 133.338673 170.318274 
L 133.251065 170.683394 
L 133.584987 170.742704 
L 133.619782 170.748753 
L 134.236755 170.858128 
L 134.293794 170.868162 
L 134.594643 170.901157 
L 134.806446 170.924434 
L 134.991659 170.944705 
L 135.058152 170.95186 
L 135.623313 170.917128 
L 136.217217 170.803613 
L 136.704029 170.630389 
L 136.811691 170.592188 
L 136.999808 170.525203 
L 137.051447 170.499767 
L 137.851814 170.108743 
L 137.983943 170.044228 
L 138.136135 169.96994 
L 138.955946 169.610547 
L 138.968365 169.605661 
L 139.078147 169.563257 
L 139.799248 169.282986 
L 140.074586 169.176066 
L 140.231009 169.117558 
L 140.865182 168.881078 
L 140.863043 169.197785 
L 140.758549 169.54194 
L 140.74173 169.592105 
L 140.707687 169.695767 
L 140.679285 169.954886 
L 140.632608 170.144604 
L 140.47723 170.547038 
L 140.473671 170.556199 
L 140.414593 170.707221 
L 140.410772 170.716848 
L 140.377538 170.804268 
L 140.333227 170.965607 
L 140.362179 171.093972 
L 140.411375 171.232929 
L 140.435516 171.270775 
L 140.488523 171.414712 
L 140.559397 171.607436 
L 140.573993 171.674019 
L 140.609793 171.914319 
L 140.608652 171.927672 
L 140.603101 172.0057 
L 140.581285 172.266825 
L 140.541738 172.337166 
L 140.41353 172.423666 
L 140.076591 172.626882 
L 140.025147 172.68202 
L 139.867874 172.853754 
L 139.768403 172.962526 
L 139.697597 173.10458 
L 139.653155 173.335837 
L 139.615887 173.523631 
L 139.610626 173.71111 
L 139.611548 174.095979 
L 139.599626 174.162912 
L 139.483752 174.299121 
L 139.18936 174.395749 
L 139.092477 174.519737 
L 139.069146 174.657701 
L 139.202241 174.804205 
L 139.376157 175.06123 
L 139.336285 175.267812 
L 139.197751 175.470896 
L 139.170507 175.639555 
L 139.169452 175.670393 
L 139.155835 176.045196 
L 139.153313 176.225628 
L 139.145214 176.297302 
L 138.998068 176.553596 
L 139.017134 176.659915 
L 139.233278 176.720534 
L 139.48911 176.885629 
L 139.760573 177.029237 
L 139.927783 176.950434 
L 140.242785 176.525572 
L 140.37626 177.053328 
L 140.377246 177.307212 
L 140.168897 178.093496 
L 139.810408 178.375138 
L 139.597014 178.542628 
L 139.540824 178.534789 
L 138.936804 178.449025 
L 138.823961 178.433084 
L 138.552633 178.219561 
L 138.249592 177.981224 
L 138.131818 178.035681 
L 137.314424 178.414835 
L 137.302472 178.429564 
L 136.899337 178.918036 
L 136.584923 179.119993 
L 136.477393 179.189331 
L 136.382958 179.249745 
L 136.263844 179.326407 
L 135.68262 179.699657 
L 135.480134 179.974501 
L 134.894286 180.229467 
L 134.405591 180.773059 
L 134.271791 180.741707 
L 134.175695 180.753907 
L 133.512143 180.838327 
L 132.849258 180.918953 
L 132.631004 180.948997 
L 132.503451 180.964895 
L 132.445313 180.972288 
L 132.239191 180.998389 
L 132.170968 181.006954 
L 131.974931 181.031883 
L 131.93458 181.036812 
L 131.922328 181.038355 
L 131.792597 181.054863 
L 131.624707 181.075452 
L 131.581475 181.080716 
L 131.508204 181.089987 
L 131.268006 181.119656 
L 131.243027 181.122719 
L 130.946841 181.135703 
L 130.591099 181.150981 
L 130.279137 181.164376 
L 130.207603 181.167509 
L 129.959783 181.182432 
L 130.074084 182.458031 
L 129.885161 182.613828 
L 129.879341 182.625271 
L 129.799757 182.781021 
L 129.719863 182.938192 
L 129.49263 183.384944 
L 129.476242 183.416933 
L 129.496484 183.692133 
L 129.512386 183.891205 
L 129.527847 184.084748 
L 129.529596 184.241925 
L 129.492143 184.534838 
L 129.446762 184.891293 
L 129.44177 184.929358 
L 128.482319 186.253354 
L 128.100623 186.262794 
L 127.850273 186.266339 
L 126.851761 186.145372 
L 126.144364 185.978596 
L 126.043847 185.954901 
L 124.045182 185.452141 
L 123.599325 185.340096 
L 123.174365 185.239872 
L 122.728638 185.134781 
L 122.627178 185.110802 
L 122.500653 185.077191 
L 121.99291 184.942189 
L 121.266037 184.749086 
L 120.650924 184.381721 
L 120.460795 184.268311 
L 120.447969 184.257374 
L 120.095038 183.960797 
L 119.946982 183.836555 
L 119.90876 183.827466 
L 119.707064 183.778855 
L 119.502295 183.729612 
L 118.957193 183.678728 
L 118.826841 183.438032 
L 118.073983 183.465636 
L 117.76654 183.556634 
L 117.688762 183.579817 
L 117.547929 183.835013 
L 117.431972 184.17598 
L 116.996175 184.93061 
L 116.957001 184.998581 
L 116.80426 185.012281 
L 116.203271 184.581225 
L 116.000425 183.924319 
L 115.772691 183.480734 
L 115.611922 183.270853 
L 115.589731 183.24173 
L 115.201761 183.319862 
L 114.715501 183.999426 
L 113.838245 184.543612 
L 112.878138 185.184733 
L 112.169562 185.663576 
L 111.798949 186.177453 
L 111.294798 186.886311 
L 110.644024 187.774894 
L 110.434966 187.937859 
L 109.757518 188.11127 
L 108.82181 188.795781 
L 108.66175 188.962385 
L 107.705442 189.85613 
L 107.387694 190.575956 
L 106.993413 190.734019 
L 106.650195 191.100086 
L 106.563983 191.182962 
L 106.560164 191.221566 
L 106.37011 191.333518 
L 106.198313 191.428659 
L 106.003436 191.53678 
L 105.6542 191.730135 
L 105.535445 191.97399 
L 104.365474 192.434472 
L 103.673229 192.622984 
L 103.517188 192.834095 
L 103.256411 193.039279 
L 103.080005 193.541766 
L 102.728285 193.804929 
L 102.120687 194.546274 
L 101.716458 195.031688 
L 101.015638 195.577788 
L 100.516807 195.745999 
L 100.429512 195.976576 
L 100.434381 196.428929 
L 100.425429 197.122456 
L 100.16858 197.509357 
L 99.930531 197.868457 
L 99.76703 198.114882 
L 99.743617 198.729146 
L 99.68581 199.237532 
L 99.638984 199.649241 
L 99.567957 200.275506 
L 99.508513 200.60924 
L 99.55754 201.45316 
L 99.579869 201.837176 
L 99.543855 202.827493 
L 99.390934 203.415684 
L 99.310113 203.728001 
L 99.268283 203.888759 
L 99.209822 205.038882 
" style="fill:#0000ff;"/>
   </g>
   <g id="PathCollection_1">
    <defs>
     <path d="M 0 3 
C 0.795609 3 1.55874 2.683901 2.12132 2.12132 
C 2.683901 1.55874 3 0.795609 3 -0 
C 3 -0.795609 2.683901 -1.55874 2.12132 -2.12132 
C 1.55874 -2.683901 0.795609 -3 0 -3 
C -0.795609 -3 -1.55874 -2.683901 -2.12132 -2.12132 
C -2.683901 -1.55874 -3 -0.795609 -3 0 
C -3 0.795609 -2.683901 1.55874 -2.12132 2.12132 
C -1.55874 2.683901 -0.795609 3 0 3 
z
" id="C0_0_965beac1a2"/>
    </defs>
    <g clip-path="url(#pe435eec222)">
     <use style="fill:#fff7ec;stroke:#fff7ec;" x="179.765007" xlink:href="#C0_0_965beac1a2" y="136.623853"/>
    </g>
    <g clip-path="url(#pe435eec222)">
     <use style="fill:#feeed7;stroke:#feeed7;" x="179.765007" xlink:href="#C0_0_965beac1a2" y="136.623853"/>
    </g>
    <g clip-path="url(#pe435eec222)">
     <use style="fill:#fee4bf;stroke:#fee4bf;" x="225.972221" xlink:href="#C0_0_965beac1a2" y="152.356936"/>
    </g>
    <g clip-path="url(#pe435eec222)">
     <use style="fill:#fdd7a4;stroke:#fdd7a4;" x="225.972221" xlink:href="#C0_0_965beac1a2" y="152.356936"/>
    </g>
    <g clip-path="url(#pe435eec222)">
     <use style="fill:#fdc992;stroke:#fdc992;" x="177.975152" xlink:href="#C0_0_965beac1a2" y="133.706441"/>
    </g>
    <g clip-path="url(#pe435eec222)">
     <use style="fill:#fdb881;stroke:#fdb881;" x="177.975152" xlink:href="#C0_0_965beac1a2" y="133.706441"/>
    </g>
    <g clip-path="url(#pe435eec222)">
     <use style="fill:#fc9b66;stroke:#fc9b66;" x="169.024034" xlink:href="#C0_0_965beac1a2" y="136.101508"/>
    </g>
    <g clip-path="url(#pe435eec222)">
     <use style="fill:#f88154;stroke:#f88154;" x="179.765007" xlink:href="#C0_0_965beac1a2" y="136.623853"/>
    </g>
    <g clip-path="url(#pe435eec222)">
     <use style="fill:#f06849;stroke:#f06849;" x="179.765007" xlink:href="#C0_0_965beac1a2" y="136.623853"/>
    </g>
    <g clip-path="url(#pe435eec222)">
     <use style="fill:#e24831;stroke:#e24831;" x="225.972221" xlink:href="#C0_0_965beac1a2" y="152.356936"/>
    </g>
    <g clip-path="url(#pe435eec222)">
     <use style="fill:#d2291a;stroke:#d2291a;" x="225.972221" xlink:href="#C0_0_965beac1a2" y="152.356936"/>
    </g>
    <g clip-path="url(#pe435eec222)">
     <use style="fill:#bb0b07;stroke:#bb0b07;" x="177.975152" xlink:href="#C0_0_965beac1a2" y="133.706441"/>
    </g>
    <g clip-path="url(#pe435eec222)">
     <use style="fill:#9e0000;stroke:#9e0000;" x="177.975152" xlink:href="#C0_0_965beac1a2" y="133.706441"/>
    </g>
    <g clip-path="url(#pe435eec222)">
     <use style="fill:#7f0000;stroke:#7f0000;" x="169.024034" xlink:href="#C0_0_965beac1a2" y="136.101508"/>
    </g>
   </g>
   <g id="matplotlib.axis_1">
    <g id="xtick_1">
     <g id="line2d_1">
      <defs>
       <path d="M 0 0 
L 0 3.5 
" id="mb51326b199" style="stroke:#000000;stroke-width:0.8;"/>
      </defs>
      <g>
       <use style="stroke:#000000;stroke-width:0.8;" x="111.048046" xlink:href="#mb51326b199" y="252"/>
      </g>
     </g>
     <g id="text_1">
      <!-- 22.72 -->
      <g transform="translate(96.733983 266.598437)scale(0.1 -0.1)">
       <defs>
        <path d="M 19.1875 8.296875 
L 53.609375 8.296875 
L 53.609375 0 
L 7.328125 0 
L 7.328125 8.296875 
Q 12.9375 14.109375 22.625 23.890625 
Q 32.328125 33.6875 34.8125 36.53125 
Q 39.546875 41.84375 41.421875 45.53125 
Q 43.3125 49.21875 43.3125 52.78125 
Q 43.3125 58.59375 39.234375 62.25 
Q 35.15625 65.921875 28.609375 65.921875 
Q 23.96875 65.921875 18.8125 64.3125 
Q 13.671875 62.703125 7.8125 59.421875 
L 7.8125 69.390625 
Q 13.765625 71.78125 18.9375 73 
Q 24.125 74.21875 28.421875 74.21875 
Q 39.75 74.21875 46.484375 68.546875 
Q 53.21875 62.890625 53.21875 53.421875 
Q 53.21875 48.921875 51.53125 44.890625 
Q 49.859375 40.875 45.40625 35.40625 
Q 44.1875 33.984375 37.640625 27.21875 
Q 31.109375 20.453125 19.1875 8.296875 
z
" id="DejaVuSans-50"/>
        <path d="M 10.6875 12.40625 
L 21 12.40625 
L 21 0 
L 10.6875 0 
z
" id="DejaVuSans-46"/>
        <path d="M 8.203125 72.90625 
L 55.078125 72.90625 
L 55.078125 68.703125 
L 28.609375 0 
L 18.3125 0 
L 43.21875 64.59375 
L 8.203125 64.59375 
z
" id="DejaVuSans-55"/>
       </defs>
       <use xlink:href="#DejaVuSans-50"/>
       <use x="63.623047" xlink:href="#DejaVuSans-50"/>
       <use x="127.246094" xlink:href="#DejaVuSans-46"/>
       <use x="159.033203" xlink:href="#DejaVuSans-55"/>
       <use x="222.65625" xlink:href="#DejaVuSans-50"/>
      </g>
     </g>
    </g>
    <g id="xtick_2">
     <g id="line2d_2">
      <g>
       <use style="stroke:#000000;stroke-width:0.8;" x="145.406527" xlink:href="#mb51326b199" y="252"/>
      </g>
     </g>
     <g id="text_2">
      <!-- 22.74 -->
      <g transform="translate(131.092464 266.598437)scale(0.1 -0.1)">
       <defs>
        <path d="M 37.796875 64.3125 
L 12.890625 25.390625 
L 37.796875 25.390625 
z
M 35.203125 72.90625 
L 47.609375 72.90625 
L 47.609375 25.390625 
L 58.015625 25.390625 
L 58.015625 17.1875 
L 47.609375 17.1875 
L 47.609375 0 
L 37.796875 0 
L 37.796875 17.1875 
L 4.890625 17.1875 
L 4.890625 26.703125 
z
" id="DejaVuSans-52"/>
       </defs>
       <use xlink:href="#DejaVuSans-50"/>
       <use x="63.623047" xlink:href="#DejaVuSans-50"/>
       <use x="127.246094" xlink:href="#DejaVuSans-46"/>
       <use x="159.033203" xlink:href="#DejaVuSans-55"/>
       <use x="222.65625" xlink:href="#DejaVuSans-52"/>
      </g>
     </g>
    </g>
    <g id="xtick_3">
     <g id="line2d_3">
      <g>
       <use style="stroke:#000000;stroke-width:0.8;" x="179.765007" xlink:href="#mb51326b199" y="252"/>
      </g>
     </g>
     <g id="text_3">
      <!-- 22.76 -->
      <g transform="translate(165.450945 266.598437)scale(0.1 -0.1)">
       <defs>
        <path d="M 33.015625 40.375 
Q 26.375 40.375 22.484375 35.828125 
Q 18.609375 31.296875 18.609375 23.390625 
Q 18.609375 15.53125 22.484375 10.953125 
Q 26.375 6.390625 33.015625 6.390625 
Q 39.65625 6.390625 43.53125 10.953125 
Q 47.40625 15.53125 47.40625 23.390625 
Q 47.40625 31.296875 43.53125 35.828125 
Q 39.65625 40.375 33.015625 40.375 
z
M 52.59375 71.296875 
L 52.59375 62.3125 
Q 48.875 64.0625 45.09375 64.984375 
Q 41.3125 65.921875 37.59375 65.921875 
Q 27.828125 65.921875 22.671875 59.328125 
Q 17.53125 52.734375 16.796875 39.40625 
Q 19.671875 43.65625 24.015625 45.921875 
Q 28.375 48.1875 33.59375 48.1875 
Q 44.578125 48.1875 50.953125 41.515625 
Q 57.328125 34.859375 57.328125 23.390625 
Q 57.328125 12.15625 50.6875 5.359375 
Q 44.046875 -1.421875 33.015625 -1.421875 
Q 20.359375 -1.421875 13.671875 8.265625 
Q 6.984375 17.96875 6.984375 36.375 
Q 6.984375 53.65625 15.1875 63.9375 
Q 23.390625 74.21875 37.203125 74.21875 
Q 40.921875 74.21875 44.703125 73.484375 
Q 48.484375 72.75 52.59375 71.296875 
z
" id="DejaVuSans-54"/>
       </defs>
       <use xlink:href="#DejaVuSans-50"/>
       <use x="63.623047" xlink:href="#DejaVuSans-50"/>
       <use x="127.246094" xlink:href="#DejaVuSans-46"/>
       <use x="159.033203" xlink:href="#DejaVuSans-55"/>
       <use x="222.65625" xlink:href="#DejaVuSans-54"/>
      </g>
     </g>
    </g>
    <g id="xtick_4">
     <g id="line2d_4">
      <g>
       <use style="stroke:#000000;stroke-width:0.8;" x="214.123488" xlink:href="#mb51326b199" y="252"/>
      </g>
     </g>
     <g id="text_4">
      <!-- 22.78 -->
      <g transform="translate(199.809425 266.598437)scale(0.1 -0.1)">
       <defs>
        <path d="M 31.78125 34.625 
Q 24.75 34.625 20.71875 30.859375 
Q 16.703125 27.09375 16.703125 20.515625 
Q 16.703125 13.921875 20.71875 10.15625 
Q 24.75 6.390625 31.78125 6.390625 
Q 38.8125 6.390625 42.859375 10.171875 
Q 46.921875 13.96875 46.921875 20.515625 
Q 46.921875 27.09375 42.890625 30.859375 
Q 38.875 34.625 31.78125 34.625 
z
M 21.921875 38.8125 
Q 15.578125 40.375 12.03125 44.71875 
Q 8.5 49.078125 8.5 55.328125 
Q 8.5 64.0625 14.71875 69.140625 
Q 20.953125 74.21875 31.78125 74.21875 
Q 42.671875 74.21875 48.875 69.140625 
Q 55.078125 64.0625 55.078125 55.328125 
Q 55.078125 49.078125 51.53125 44.71875 
Q 48 40.375 41.703125 38.8125 
Q 48.828125 37.15625 52.796875 32.3125 
Q 56.78125 27.484375 56.78125 20.515625 
Q 56.78125 9.90625 50.3125 4.234375 
Q 43.84375 -1.421875 31.78125 -1.421875 
Q 19.734375 -1.421875 13.25 4.234375 
Q 6.78125 9.90625 6.78125 20.515625 
Q 6.78125 27.484375 10.78125 32.3125 
Q 14.796875 37.15625 21.921875 38.8125 
z
M 18.3125 54.390625 
Q 18.3125 48.734375 21.84375 45.5625 
Q 25.390625 42.390625 31.78125 42.390625 
Q 38.140625 42.390625 41.71875 45.5625 
Q 45.3125 48.734375 45.3125 54.390625 
Q 45.3125 60.0625 41.71875 63.234375 
Q 38.140625 66.40625 31.78125 66.40625 
Q 25.390625 66.40625 21.84375 63.234375 
Q 18.3125 60.0625 18.3125 54.390625 
z
" id="DejaVuSans-56"/>
       </defs>
       <use xlink:href="#DejaVuSans-50"/>
       <use x="63.623047" xlink:href="#DejaVuSans-50"/>
       <use x="127.246094" xlink:href="#DejaVuSans-46"/>
       <use x="159.033203" xlink:href="#DejaVuSans-55"/>
       <use x="222.65625" xlink:href="#DejaVuSans-56"/>
      </g>
     </g>
    </g>
    <g id="xtick_5">
     <g id="line2d_5">
      <g>
       <use style="stroke:#000000;stroke-width:0.8;" x="248.481968" xlink:href="#mb51326b199" y="252"/>
      </g>
     </g>
     <g id="text_5">
      <!-- 22.80 -->
      <g transform="translate(234.167906 266.598437)scale(0.1 -0.1)">
       <defs>
        <path d="M 31.78125 66.40625 
Q 24.171875 66.40625 20.328125 58.90625 
Q 16.5 51.421875 16.5 36.375 
Q 16.5 21.390625 20.328125 13.890625 
Q 24.171875 6.390625 31.78125 6.390625 
Q 39.453125 6.390625 43.28125 13.890625 
Q 47.125 21.390625 47.125 36.375 
Q 47.125 51.421875 43.28125 58.90625 
Q 39.453125 66.40625 31.78125 66.40625 
z
M 31.78125 74.21875 
Q 44.046875 74.21875 50.515625 64.515625 
Q 56.984375 54.828125 56.984375 36.375 
Q 56.984375 17.96875 50.515625 8.265625 
Q 44.046875 -1.421875 31.78125 -1.421875 
Q 19.53125 -1.421875 13.0625 8.265625 
Q 6.59375 17.96875 6.59375 36.375 
Q 6.59375 54.828125 13.0625 64.515625 
Q 19.53125 74.21875 31.78125 74.21875 
z
" id="DejaVuSans-48"/>
       </defs>
       <use xlink:href="#DejaVuSans-50"/>
       <use x="63.623047" xlink:href="#DejaVuSans-50"/>
       <use x="127.246094" xlink:href="#DejaVuSans-46"/>
       <use x="159.033203" xlink:href="#DejaVuSans-56"/>
       <use x="222.65625" xlink:href="#DejaVuSans-48"/>
      </g>
     </g>
    </g>
    <g id="xtick_6">
     <g id="line2d_6">
      <g>
       <use style="stroke:#000000;stroke-width:0.8;" x="282.840449" xlink:href="#mb51326b199" y="252"/>
      </g>
     </g>
     <g id="text_6">
      <!-- 22.82 -->
      <g transform="translate(268.526386 266.598437)scale(0.1 -0.1)">
       <use xlink:href="#DejaVuSans-50"/>
       <use x="63.623047" xlink:href="#DejaVuSans-50"/>
       <use x="127.246094" xlink:href="#DejaVuSans-46"/>
       <use x="159.033203" xlink:href="#DejaVuSans-56"/>
       <use x="222.65625" xlink:href="#DejaVuSans-50"/>
      </g>
     </g>
    </g>
    <g id="xtick_7">
     <g id="line2d_7">
      <g>
       <use style="stroke:#000000;stroke-width:0.8;" x="317.19893" xlink:href="#mb51326b199" y="252"/>
      </g>
     </g>
     <g id="text_7">
      <!-- 22.84 -->
      <g transform="translate(302.884867 266.598437)scale(0.1 -0.1)">
       <use xlink:href="#DejaVuSans-50"/>
       <use x="63.623047" xlink:href="#DejaVuSans-50"/>
       <use x="127.246094" xlink:href="#DejaVuSans-46"/>
       <use x="159.033203" xlink:href="#DejaVuSans-56"/>
       <use x="222.65625" xlink:href="#DejaVuSans-52"/>
      </g>
     </g>
    </g>
    <g id="xtick_8">
     <g id="line2d_8">
      <g>
       <use style="stroke:#000000;stroke-width:0.8;" x="351.55741" xlink:href="#mb51326b199" y="252"/>
      </g>
     </g>
     <g id="text_8">
      <!-- 22.86 -->
      <g transform="translate(337.243348 266.598437)scale(0.1 -0.1)">
       <use xlink:href="#DejaVuSans-50"/>
       <use x="63.623047" xlink:href="#DejaVuSans-50"/>
       <use x="127.246094" xlink:href="#DejaVuSans-46"/>
       <use x="159.033203" xlink:href="#DejaVuSans-56"/>
       <use x="222.65625" xlink:href="#DejaVuSans-54"/>
      </g>
     </g>
    </g>
   </g>
   <g id="matplotlib.axis_2">
    <g id="ytick_1">
     <g id="line2d_9">
      <defs>
       <path d="M 0 0 
L -3.5 0 
" id="m933c7e3872" style="stroke:#000000;stroke-width:0.8;"/>
      </defs>
      <g>
       <use style="stroke:#000000;stroke-width:0.8;" x="86.880531" xlink:href="#m933c7e3872" y="232.407538"/>
      </g>
     </g>
     <g id="text_9">
      <!-- 49.75 -->
      <g transform="translate(51.252406 236.206757)scale(0.1 -0.1)">
       <defs>
        <path d="M 10.984375 1.515625 
L 10.984375 10.5 
Q 14.703125 8.734375 18.5 7.8125 
Q 22.3125 6.890625 25.984375 6.890625 
Q 35.75 6.890625 40.890625 13.453125 
Q 46.046875 20.015625 46.78125 33.40625 
Q 43.953125 29.203125 39.59375 26.953125 
Q 35.25 24.703125 29.984375 24.703125 
Q 19.046875 24.703125 12.671875 31.3125 
Q 6.296875 37.9375 6.296875 49.421875 
Q 6.296875 60.640625 12.9375 67.421875 
Q 19.578125 74.21875 30.609375 74.21875 
Q 43.265625 74.21875 49.921875 64.515625 
Q 56.59375 54.828125 56.59375 36.375 
Q 56.59375 19.140625 48.40625 8.859375 
Q 40.234375 -1.421875 26.421875 -1.421875 
Q 22.703125 -1.421875 18.890625 -0.6875 
Q 15.09375 0.046875 10.984375 1.515625 
z
M 30.609375 32.421875 
Q 37.25 32.421875 41.125 36.953125 
Q 45.015625 41.5 45.015625 49.421875 
Q 45.015625 57.28125 41.125 61.84375 
Q 37.25 66.40625 30.609375 66.40625 
Q 23.96875 66.40625 20.09375 61.84375 
Q 16.21875 57.28125 16.21875 49.421875 
Q 16.21875 41.5 20.09375 36.953125 
Q 23.96875 32.421875 30.609375 32.421875 
z
" id="DejaVuSans-57"/>
        <path d="M 10.796875 72.90625 
L 49.515625 72.90625 
L 49.515625 64.59375 
L 19.828125 64.59375 
L 19.828125 46.734375 
Q 21.96875 47.46875 24.109375 47.828125 
Q 26.265625 48.1875 28.421875 48.1875 
Q 40.625 48.1875 47.75 41.5 
Q 54.890625 34.8125 54.890625 23.390625 
Q 54.890625 11.625 47.5625 5.09375 
Q 40.234375 -1.421875 26.90625 -1.421875 
Q 22.3125 -1.421875 17.546875 -0.640625 
Q 12.796875 0.140625 7.71875 1.703125 
L 7.71875 11.625 
Q 12.109375 9.234375 16.796875 8.0625 
Q 21.484375 6.890625 26.703125 6.890625 
Q 35.15625 6.890625 40.078125 11.328125 
Q 45.015625 15.765625 45.015625 23.390625 
Q 45.015625 31 40.078125 35.4375 
Q 35.15625 39.890625 26.703125 39.890625 
Q 22.75 39.890625 18.8125 39.015625 
Q 14.890625 38.140625 10.796875 36.28125 
z
" id="DejaVuSans-53"/>
       </defs>
       <use xlink:href="#DejaVuSans-52"/>
       <use x="63.623047" xlink:href="#DejaVuSans-57"/>
       <use x="127.246094" xlink:href="#DejaVuSans-46"/>
       <use x="159.033203" xlink:href="#DejaVuSans-55"/>
       <use x="222.65625" xlink:href="#DejaVuSans-53"/>
      </g>
     </g>
    </g>
    <g id="ytick_2">
     <g id="line2d_10">
      <g>
       <use style="stroke:#000000;stroke-width:0.8;" x="86.880531" xlink:href="#m933c7e3872" y="205.800959"/>
      </g>
     </g>
     <g id="text_10">
      <!-- 49.76 -->
      <g transform="translate(51.252406 209.600178)scale(0.1 -0.1)">
       <use xlink:href="#DejaVuSans-52"/>
       <use x="63.623047" xlink:href="#DejaVuSans-57"/>
       <use x="127.246094" xlink:href="#DejaVuSans-46"/>
       <use x="159.033203" xlink:href="#DejaVuSans-55"/>
       <use x="222.65625" xlink:href="#DejaVuSans-54"/>
      </g>
     </g>
    </g>
    <g id="ytick_3">
     <g id="line2d_11">
      <g>
       <use style="stroke:#000000;stroke-width:0.8;" x="86.880531" xlink:href="#m933c7e3872" y="179.19438"/>
      </g>
     </g>
     <g id="text_11">
      <!-- 49.77 -->
      <g transform="translate(51.252406 182.993598)scale(0.1 -0.1)">
       <use xlink:href="#DejaVuSans-52"/>
       <use x="63.623047" xlink:href="#DejaVuSans-57"/>
       <use x="127.246094" xlink:href="#DejaVuSans-46"/>
       <use x="159.033203" xlink:href="#DejaVuSans-55"/>
       <use x="222.65625" xlink:href="#DejaVuSans-55"/>
      </g>
     </g>
    </g>
    <g id="ytick_4">
     <g id="line2d_12">
      <g>
       <use style="stroke:#000000;stroke-width:0.8;" x="86.880531" xlink:href="#m933c7e3872" y="152.5878"/>
      </g>
     </g>
     <g id="text_12">
      <!-- 49.78 -->
      <g transform="translate(51.252406 156.387019)scale(0.1 -0.1)">
       <use xlink:href="#DejaVuSans-52"/>
       <use x="63.623047" xlink:href="#DejaVuSans-57"/>
       <use x="127.246094" xlink:href="#DejaVuSans-46"/>
       <use x="159.033203" xlink:href="#DejaVuSans-55"/>
       <use x="222.65625" xlink:href="#DejaVuSans-56"/>
      </g>
     </g>
    </g>
    <g id="ytick_5">
     <g id="line2d_13">
      <g>
       <use style="stroke:#000000;stroke-width:0.8;" x="86.880531" xlink:href="#m933c7e3872" y="125.981221"/>
      </g>
     </g>
     <g id="text_13">
      <!-- 49.79 -->
      <g transform="translate(51.252406 129.78044)scale(0.1 -0.1)">
       <use xlink:href="#DejaVuSans-52"/>
       <use x="63.623047" xlink:href="#DejaVuSans-57"/>
       <use x="127.246094" xlink:href="#DejaVuSans-46"/>
       <use x="159.033203" xlink:href="#DejaVuSans-55"/>
       <use x="222.65625" xlink:href="#DejaVuSans-57"/>
      </g>
     </g>
    </g>
    <g id="ytick_6">
     <g id="line2d_14">
      <g>
       <use style="stroke:#000000;stroke-width:0.8;" x="86.880531" xlink:href="#m933c7e3872" y="99.374641"/>
      </g>
     </g>
     <g id="text_14">
      <!-- 49.80 -->
      <g transform="translate(51.252406 103.17386)scale(0.1 -0.1)">
       <use xlink:href="#DejaVuSans-52"/>
       <use x="63.623047" xlink:href="#DejaVuSans-57"/>
       <use x="127.246094" xlink:href="#DejaVuSans-46"/>
       <use x="159.033203" xlink:href="#DejaVuSans-56"/>
       <use x="222.65625" xlink:href="#DejaVuSans-48"/>
      </g>
     </g>
    </g>
    <g id="ytick_7">
     <g id="line2d_15">
      <g>
       <use style="stroke:#000000;stroke-width:0.8;" x="86.880531" xlink:href="#m933c7e3872" y="72.768062"/>
      </g>
     </g>
     <g id="text_15">
      <!-- 49.81 -->
      <g transform="translate(51.252406 76.567281)scale(0.1 -0.1)">
       <defs>
        <path d="M 12.40625 8.296875 
L 28.515625 8.296875 
L 28.515625 63.921875 
L 10.984375 60.40625 
L 10.984375 69.390625 
L 28.421875 72.90625 
L 38.28125 72.90625 
L 38.28125 8.296875 
L 54.390625 8.296875 
L 54.390625 0 
L 12.40625 0 
z
" id="DejaVuSans-49"/>
       </defs>
       <use xlink:href="#DejaVuSans-52"/>
       <use x="63.623047" xlink:href="#DejaVuSans-57"/>
       <use x="127.246094" xlink:href="#DejaVuSans-46"/>
       <use x="159.033203" xlink:href="#DejaVuSans-56"/>
       <use x="222.65625" xlink:href="#DejaVuSans-49"/>
      </g>
     </g>
    </g>
    <g id="ytick_8">
     <g id="line2d_16">
      <g>
       <use style="stroke:#000000;stroke-width:0.8;" x="86.880531" xlink:href="#m933c7e3872" y="46.161483"/>
      </g>
     </g>
     <g id="text_16">
      <!-- 49.82 -->
      <g transform="translate(51.252406 49.960701)scale(0.1 -0.1)">
       <use xlink:href="#DejaVuSans-52"/>
       <use x="63.623047" xlink:href="#DejaVuSans-57"/>
       <use x="127.246094" xlink:href="#DejaVuSans-46"/>
       <use x="159.033203" xlink:href="#DejaVuSans-56"/>
       <use x="222.65625" xlink:href="#DejaVuSans-50"/>
      </g>
     </g>
    </g>
   </g>
   <g id="patch_3">
    <path d="M 86.880531 252 
L 86.880531 34.56 
" style="fill:none;stroke:#000000;stroke-linecap:square;stroke-linejoin:miter;stroke-width:0.8;"/>
   </g>
   <g id="patch_4">
    <path d="M 355.919469 252 
L 355.919469 34.56 
" style="fill:none;stroke:#000000;stroke-linecap:square;stroke-linejoin:miter;stroke-width:0.8;"/>
   </g>
   <g id="patch_5">
    <path d="M 86.880531 252 
L 355.919469 252 
" style="fill:none;stroke:#000000;stroke-linecap:square;stroke-linejoin:miter;stroke-width:0.8;"/>
   </g>
   <g id="patch_6">
    <path d="M 86.880531 34.56 
L 355.919469 34.56 
" style="fill:none;stroke:#000000;stroke-linecap:square;stroke-linejoin:miter;stroke-width:0.8;"/>
   </g>
   <g id="text_17">
    <!-- 4358575029 -->
    <g transform="translate(179.765007 136.623853)scale(0.01 -0.01)">
     <defs>
      <path d="M 40.578125 39.3125 
Q 47.65625 37.796875 51.625 33 
Q 55.609375 28.21875 55.609375 21.1875 
Q 55.609375 10.40625 48.1875 4.484375 
Q 40.765625 -1.421875 27.09375 -1.421875 
Q 22.515625 -1.421875 17.65625 -0.515625 
Q 12.796875 0.390625 7.625 2.203125 
L 7.625 11.71875 
Q 11.71875 9.328125 16.59375 8.109375 
Q 21.484375 6.890625 26.8125 6.890625 
Q 36.078125 6.890625 40.9375 10.546875 
Q 45.796875 14.203125 45.796875 21.1875 
Q 45.796875 27.640625 41.28125 31.265625 
Q 36.765625 34.90625 28.71875 34.90625 
L 20.21875 34.90625 
L 20.21875 43.015625 
L 29.109375 43.015625 
Q 36.375 43.015625 40.234375 45.921875 
Q 44.09375 48.828125 44.09375 54.296875 
Q 44.09375 59.90625 40.109375 62.90625 
Q 36.140625 65.921875 28.71875 65.921875 
Q 24.65625 65.921875 20.015625 65.03125 
Q 15.375 64.15625 9.8125 62.3125 
L 9.8125 71.09375 
Q 15.4375 72.65625 20.34375 73.4375 
Q 25.25 74.21875 29.59375 74.21875 
Q 40.828125 74.21875 47.359375 69.109375 
Q 53.90625 64.015625 53.90625 55.328125 
Q 53.90625 49.265625 50.4375 45.09375 
Q 46.96875 40.921875 40.578125 39.3125 
z
" id="DejaVuSans-51"/>
     </defs>
     <use xlink:href="#DejaVuSans-52"/>
     <use x="63.623047" xlink:href="#DejaVuSans-51"/>
     <use x="127.246094" xlink:href="#DejaVuSans-53"/>
     <use x="190.869141" xlink:href="#DejaVuSans-56"/>
     <use x="254.492188" xlink:href="#DejaVuSans-53"/>
     <use x="318.115234" xlink:href="#DejaVuSans-55"/>
     <use x="381.738281" xlink:href="#DejaVuSans-53"/>
     <use x="445.361328" xlink:href="#DejaVuSans-48"/>
     <use x="508.984375" xlink:href="#DejaVuSans-50"/>
     <use x="572.607422" xlink:href="#DejaVuSans-57"/>
    </g>
   </g>
   <g id="text_18">
    <!-- 4358574710 -->
    <g transform="translate(179.765007 136.623853)scale(0.01 -0.01)">
     <use xlink:href="#DejaVuSans-52"/>
     <use x="63.623047" xlink:href="#DejaVuSans-51"/>
     <use x="127.246094" xlink:href="#DejaVuSans-53"/>
     <use x="190.869141" xlink:href="#DejaVuSans-56"/>
     <use x="254.492188" xlink:href="#DejaVuSans-53"/>
     <use x="318.115234" xlink:href="#DejaVuSans-55"/>
     <use x="381.738281" xlink:href="#DejaVuSans-52"/>
     <use x="445.361328" xlink:href="#DejaVuSans-55"/>
     <use x="508.984375" xlink:href="#DejaVuSans-49"/>
     <use x="572.607422" xlink:href="#DejaVuSans-48"/>
    </g>
   </g>
   <g id="text_19">
    <!-- 4358568620 -->
    <g transform="translate(225.972221 152.356936)scale(0.01 -0.01)">
     <use xlink:href="#DejaVuSans-52"/>
     <use x="63.623047" xlink:href="#DejaVuSans-51"/>
     <use x="127.246094" xlink:href="#DejaVuSans-53"/>
     <use x="190.869141" xlink:href="#DejaVuSans-56"/>
     <use x="254.492188" xlink:href="#DejaVuSans-53"/>
     <use x="318.115234" xlink:href="#DejaVuSans-54"/>
     <use x="381.738281" xlink:href="#DejaVuSans-56"/>
     <use x="445.361328" xlink:href="#DejaVuSans-54"/>
     <use x="508.984375" xlink:href="#DejaVuSans-50"/>
     <use x="572.607422" xlink:href="#DejaVuSans-48"/>
    </g>
   </g>
   <g id="text_20">
    <!-- 4358568490 -->
    <g transform="translate(225.972221 152.356936)scale(0.01 -0.01)">
     <use xlink:href="#DejaVuSans-52"/>
     <use x="63.623047" xlink:href="#DejaVuSans-51"/>
     <use x="127.246094" xlink:href="#DejaVuSans-53"/>
     <use x="190.869141" xlink:href="#DejaVuSans-56"/>
     <use x="254.492188" xlink:href="#DejaVuSans-53"/>
     <use x="318.115234" xlink:href="#DejaVuSans-54"/>
     <use x="381.738281" xlink:href="#DejaVuSans-56"/>
     <use x="445.361328" xlink:href="#DejaVuSans-52"/>
     <use x="508.984375" xlink:href="#DejaVuSans-57"/>
     <use x="572.607422" xlink:href="#DejaVuSans-48"/>
    </g>
   </g>
   <g id="text_21">
    <!-- 4358568459 -->
    <g transform="translate(177.975152 133.706441)scale(0.01 -0.01)">
     <use xlink:href="#DejaVuSans-52"/>
     <use x="63.623047" xlink:href="#DejaVuSans-51"/>
     <use x="127.246094" xlink:href="#DejaVuSans-53"/>
     <use x="190.869141" xlink:href="#DejaVuSans-56"/>
     <use x="254.492188" xlink:href="#DejaVuSans-53"/>
     <use x="318.115234" xlink:href="#DejaVuSans-54"/>
     <use x="381.738281" xlink:href="#DejaVuSans-56"/>
     <use x="445.361328" xlink:href="#DejaVuSans-52"/>
     <use x="508.984375" xlink:href="#DejaVuSans-53"/>
     <use x="572.607422" xlink:href="#DejaVuSans-57"/>
    </g>
   </g>
   <g id="text_22">
    <!-- 4358568351 -->
    <g transform="translate(177.975152 133.706441)scale(0.01 -0.01)">
     <use xlink:href="#DejaVuSans-52"/>
     <use x="63.623047" xlink:href="#DejaVuSans-51"/>
     <use x="127.246094" xlink:href="#DejaVuSans-53"/>
     <use x="190.869141" xlink:href="#DejaVuSans-56"/>
     <use x="254.492188" xlink:href="#DejaVuSans-53"/>
     <use x="318.115234" xlink:href="#DejaVuSans-54"/>
     <use x="381.738281" xlink:href="#DejaVuSans-56"/>
     <use x="445.361328" xlink:href="#DejaVuSans-51"/>
     <use x="508.984375" xlink:href="#DejaVuSans-53"/>
     <use x="572.607422" xlink:href="#DejaVuSans-49"/>
    </g>
   </g>
   <g id="text_23">
    <!-- 4358557895 -->
    <g transform="translate(169.024034 136.101508)scale(0.01 -0.01)">
     <use xlink:href="#DejaVuSans-52"/>
     <use x="63.623047" xlink:href="#DejaVuSans-51"/>
     <use x="127.246094" xlink:href="#DejaVuSans-53"/>
     <use x="190.869141" xlink:href="#DejaVuSans-56"/>
     <use x="254.492188" xlink:href="#DejaVuSans-53"/>
     <use x="318.115234" xlink:href="#DejaVuSans-53"/>
     <use x="381.738281" xlink:href="#DejaVuSans-55"/>
     <use x="445.361328" xlink:href="#DejaVuSans-56"/>
     <use x="508.984375" xlink:href="#DejaVuSans-57"/>
     <use x="572.607422" xlink:href="#DejaVuSans-53"/>
    </g>
   </g>
   <g id="text_24">
    <!-- 4358548449 -->
    <g transform="translate(179.765007 136.623853)scale(0.01 -0.01)">
     <use xlink:href="#DejaVuSans-52"/>
     <use x="63.623047" xlink:href="#DejaVuSans-51"/>
     <use x="127.246094" xlink:href="#DejaVuSans-53"/>
     <use x="190.869141" xlink:href="#DejaVuSans-56"/>
     <use x="254.492188" xlink:href="#DejaVuSans-53"/>
     <use x="318.115234" xlink:href="#DejaVuSans-52"/>
     <use x="381.738281" xlink:href="#DejaVuSans-56"/>
     <use x="445.361328" xlink:href="#DejaVuSans-52"/>
     <use x="508.984375" xlink:href="#DejaVuSans-52"/>
     <use x="572.607422" xlink:href="#DejaVuSans-57"/>
    </g>
   </g>
   <g id="text_25">
    <!-- 4358547835 -->
    <g transform="translate(179.765007 136.623853)scale(0.01 -0.01)">
     <use xlink:href="#DejaVuSans-52"/>
     <use x="63.623047" xlink:href="#DejaVuSans-51"/>
     <use x="127.246094" xlink:href="#DejaVuSans-53"/>
     <use x="190.869141" xlink:href="#DejaVuSans-56"/>
     <use x="254.492188" xlink:href="#DejaVuSans-53"/>
     <use x="318.115234" xlink:href="#DejaVuSans-52"/>
     <use x="381.738281" xlink:href="#DejaVuSans-55"/>
     <use x="445.361328" xlink:href="#DejaVuSans-56"/>
     <use x="508.984375" xlink:href="#DejaVuSans-51"/>
     <use x="572.607422" xlink:href="#DejaVuSans-53"/>
    </g>
   </g>
   <g id="text_26">
    <!-- 4358542542 -->
    <g transform="translate(225.972221 152.356936)scale(0.01 -0.01)">
     <use xlink:href="#DejaVuSans-52"/>
     <use x="63.623047" xlink:href="#DejaVuSans-51"/>
     <use x="127.246094" xlink:href="#DejaVuSans-53"/>
     <use x="190.869141" xlink:href="#DejaVuSans-56"/>
     <use x="254.492188" xlink:href="#DejaVuSans-53"/>
     <use x="318.115234" xlink:href="#DejaVuSans-52"/>
     <use x="381.738281" xlink:href="#DejaVuSans-50"/>
     <use x="445.361328" xlink:href="#DejaVuSans-53"/>
     <use x="508.984375" xlink:href="#DejaVuSans-52"/>
     <use x="572.607422" xlink:href="#DejaVuSans-50"/>
    </g>
   </g>
   <g id="text_27">
    <!-- 4358542472 -->
    <g transform="translate(225.972221 152.356936)scale(0.01 -0.01)">
     <use xlink:href="#DejaVuSans-52"/>
     <use x="63.623047" xlink:href="#DejaVuSans-51"/>
     <use x="127.246094" xlink:href="#DejaVuSans-53"/>
     <use x="190.869141" xlink:href="#DejaVuSans-56"/>
     <use x="254.492188" xlink:href="#DejaVuSans-53"/>
     <use x="318.115234" xlink:href="#DejaVuSans-52"/>
     <use x="381.738281" xlink:href="#DejaVuSans-50"/>
     <use x="445.361328" xlink:href="#DejaVuSans-52"/>
     <use x="508.984375" xlink:href="#DejaVuSans-55"/>
     <use x="572.607422" xlink:href="#DejaVuSans-50"/>
    </g>
   </g>
   <g id="text_28">
    <!-- 4358542397 -->
    <g transform="translate(177.975152 133.706441)scale(0.01 -0.01)">
     <use xlink:href="#DejaVuSans-52"/>
     <use x="63.623047" xlink:href="#DejaVuSans-51"/>
     <use x="127.246094" xlink:href="#DejaVuSans-53"/>
     <use x="190.869141" xlink:href="#DejaVuSans-56"/>
     <use x="254.492188" xlink:href="#DejaVuSans-53"/>
     <use x="318.115234" xlink:href="#DejaVuSans-52"/>
     <use x="381.738281" xlink:href="#DejaVuSans-50"/>
     <use x="445.361328" xlink:href="#DejaVuSans-51"/>
     <use x="508.984375" xlink:href="#DejaVuSans-57"/>
     <use x="572.607422" xlink:href="#DejaVuSans-55"/>
    </g>
   </g>
   <g id="text_29">
    <!-- 4358542355 -->
    <g transform="translate(177.975152 133.706441)scale(0.01 -0.01)">
     <use xlink:href="#DejaVuSans-52"/>
     <use x="63.623047" xlink:href="#DejaVuSans-51"/>
     <use x="127.246094" xlink:href="#DejaVuSans-53"/>
     <use x="190.869141" xlink:href="#DejaVuSans-56"/>
     <use x="254.492188" xlink:href="#DejaVuSans-53"/>
     <use x="318.115234" xlink:href="#DejaVuSans-52"/>
     <use x="381.738281" xlink:href="#DejaVuSans-50"/>
     <use x="445.361328" xlink:href="#DejaVuSans-51"/>
     <use x="508.984375" xlink:href="#DejaVuSans-53"/>
     <use x="572.607422" xlink:href="#DejaVuSans-53"/>
    </g>
   </g>
   <g id="text_30">
    <!-- 4358531798 -->
    <g transform="translate(169.024034 136.101508)scale(0.01 -0.01)">
     <use xlink:href="#DejaVuSans-52"/>
     <use x="63.623047" xlink:href="#DejaVuSans-51"/>
     <use x="127.246094" xlink:href="#DejaVuSans-53"/>
     <use x="190.869141" xlink:href="#DejaVuSans-56"/>
     <use x="254.492188" xlink:href="#DejaVuSans-53"/>
     <use x="318.115234" xlink:href="#DejaVuSans-51"/>
     <use x="381.738281" xlink:href="#DejaVuSans-49"/>
     <use x="445.361328" xlink:href="#DejaVuSans-55"/>
     <use x="508.984375" xlink:href="#DejaVuSans-57"/>
     <use x="572.607422" xlink:href="#DejaVuSans-56"/>
    </g>
   </g>
  </g>
 </g>
 <defs>
  <clipPath id="pe435eec222">
   <rect height="217.44" width="269.038938" x="86.880531" y="34.56"/>
  </clipPath>
 </defs>
</svg>
